%
M48
M72
T01C0.0150
T02C0.0157
T03C0.0200
T04C0.0236
T05C0.0276
T06C0.0400
T07C0.1300
T08C0.1469
%
T01
X21584Y7925
X41784Y7925
X61984Y7925
X61984Y28125
X41784Y28125
X21584Y28125
X21584Y48325
X41784Y48325
X61984Y48325
T02
X59484Y48925
X59484Y50325
X59484Y51275
X58184Y50775
X57784Y51275
X56734Y51025
X56284Y52325
X55784Y53475
X55884Y53896
X54784Y52975
X54084Y53075
X53684Y52525
X53334Y52725
X53234Y53425
X53184Y54825
X53934Y54825
X54534Y55275
X54034Y56875
X55234Y57675
X54734Y58775
X54734Y59975
X56698Y57864
X58136Y57864
X58134Y56875
X58934Y56475
X59984Y56575
X60734Y56525
X59584Y55575
X59734Y54225
X60834Y54475
X61534Y55225
X62734Y54875
X63984Y55225
X64084Y53275
X62234Y52375
X58834Y52875
X57584Y54875
X56784Y55725
X59084Y58575
X58884Y59375
X59434Y60775
X60984Y60775
X61084Y59375
X60884Y58425
X54934Y51325
X54884Y50275
X54434Y49025
X52984Y49125
X52984Y48475
X52334Y47375
X50684Y49375
X50384Y49725
X50384Y51275
X49534Y51375
X51384Y51325
X52084Y51925
X52084Y52375
X53684Y51175
X56334Y49275
X56684Y48375
X55534Y47725
X55534Y46125
X57784Y49125
X52484Y55375
X50384Y54825
X49884Y53675
X47884Y51225
X46734Y51775
X45384Y53275
X43884Y53275
X42034Y52375
X40634Y54475
X41334Y55225
X42534Y54875
X43784Y55225
X46834Y54575
X50734Y56775
X52734Y56875
X40884Y59375
X40684Y58425
X38884Y58575
X38684Y59375
X39234Y60775
X40784Y60775
X37936Y57864
X37934Y56875
X38734Y56475
X39384Y55575
X39784Y56575
X40534Y56525
X39534Y54225
X38634Y52875
X39284Y51275
X39284Y50325
X37984Y50775
X37584Y51275
X36534Y51025
X36084Y52325
X35584Y53475
X35684Y53896
X34584Y52975
X33884Y53075
X33484Y52525
X33134Y52725
X33034Y53425
X32984Y54825
X33734Y54825
X34334Y55275
X32284Y55375
X32534Y56875
X33834Y56875
X35034Y57675
X34534Y58775
X34534Y59975
X36498Y57864
X36584Y55725
X37384Y54875
X34734Y51325
X34684Y50275
X34234Y49025
X32784Y49125
X32784Y48475
X32134Y47375
X30484Y49375
X30184Y49725
X30184Y51275
X29334Y51375
X31184Y51325
X31884Y51925
X31884Y52375
X33484Y51175
X36134Y49275
X36484Y48375
X35334Y47725
X35334Y46125
X37584Y49125
X39284Y48925
X39234Y40575
X38684Y39175
X38884Y38375
X37936Y37664
X37934Y36675
X38734Y36275
X39384Y35375
X39784Y36375
X40534Y36325
X41334Y35025
X40634Y34275
X39534Y34025
X38634Y32675
X39284Y31075
X39284Y30125
X37984Y30575
X37584Y31075
X36534Y30825
X36084Y32125
X35584Y33275
X35684Y33696
X34584Y32775
X33884Y32875
X33484Y32325
X33134Y32525
X33034Y33225
X32984Y34625
X33734Y34625
X34334Y35075
X33834Y36675
X35034Y37475
X34534Y38575
X34534Y39775
X36498Y37664
X36584Y35525
X37384Y34675
X34734Y31125
X34684Y30075
X34234Y28825
X32784Y28925
X32784Y28275
X32134Y27175
X30484Y29175
X30184Y29525
X30184Y31075
X29334Y31175
X31184Y31125
X31884Y31725
X31884Y32175
X33484Y30975
X36134Y29075
X36484Y28175
X35334Y27525
X35334Y25925
X37584Y28925
X39284Y28725
X42034Y32175
X43884Y33075
X45384Y33075
X46834Y34375
X46734Y31575
X47884Y31025
X49534Y31175
X50384Y31075
X51384Y31125
X52084Y31725
X52084Y32175
X53334Y32525
X53684Y32325
X54084Y32875
X54784Y32775
X55784Y33275
X55884Y33696
X54534Y35075
X53934Y34625
X53184Y34625
X52484Y35175
X52734Y36675
X54034Y36675
X55234Y37475
X54734Y38575
X54734Y39775
X56698Y37664
X58136Y37664
X58134Y36675
X58934Y36275
X59984Y36375
X60734Y36325
X59584Y35375
X59734Y34025
X60834Y34275
X61534Y35025
X62734Y34675
X63984Y35025
X64084Y33075
X62234Y32175
X59484Y31075
X59484Y30125
X58184Y30575
X57784Y31075
X56734Y30825
X56284Y32125
X54934Y31125
X54884Y30075
X54434Y28825
X52984Y28925
X52984Y28275
X52334Y27175
X50684Y29175
X50384Y29525
X53684Y30975
X53234Y33225
X50384Y34625
X49884Y33475
X50734Y36575
X56784Y35525
X57584Y34675
X58834Y32675
X57784Y28925
X56684Y28175
X56334Y29075
X55534Y27525
X55534Y25925
X59484Y28725
X59434Y20375
X58884Y18975
X59084Y18175
X58136Y17464
X58134Y16475
X58934Y16075
X59984Y16175
X60734Y16125
X59584Y15175
X59734Y13825
X60834Y14075
X61534Y14825
X62734Y14475
X63984Y14825
X64084Y12875
X62234Y11975
X59484Y10875
X59484Y9925
X58184Y10375
X57784Y10875
X56734Y10625
X56284Y11925
X55784Y13075
X55884Y13496
X54784Y12575
X54084Y12675
X53684Y12125
X53334Y12325
X53234Y13025
X52084Y11975
X52084Y11525
X51384Y10925
X50384Y10875
X49534Y10975
X50384Y9325
X50684Y8975
X52984Y8725
X52984Y8075
X52334Y6975
X54434Y8625
X54884Y9875
X54934Y10925
X53684Y10775
X56334Y8875
X56684Y7975
X55534Y7325
X55534Y5725
X57784Y8725
X59484Y8525
X58834Y12475
X57584Y14475
X56784Y15325
X56698Y17464
X55234Y17275
X54034Y16475
X52734Y16475
X52484Y14975
X53184Y14425
X53934Y14425
X54534Y14875
X54734Y18375
X54734Y19575
X50734Y16375
X50384Y14425
X49884Y13275
X47884Y10825
X46734Y11375
X45384Y12875
X43884Y12875
X42034Y11975
X40634Y14075
X41334Y14825
X42534Y14475
X43784Y14825
X46834Y14175
X40534Y16125
X39784Y16175
X38734Y16075
X37934Y16475
X37936Y17464
X38884Y18175
X38684Y18975
X39234Y20375
X40784Y20375
X40884Y18975
X40684Y18025
X39384Y15175
X39534Y13825
X38634Y12475
X39284Y10875
X39284Y9925
X37984Y10375
X37584Y10875
X36534Y10625
X36084Y11925
X35584Y13075
X35684Y13496
X34584Y12575
X33884Y12675
X33484Y12125
X33134Y12325
X33034Y13025
X32984Y14425
X33734Y14425
X34334Y14875
X33834Y16475
X35034Y17275
X34534Y18375
X34534Y19575
X36498Y17464
X36584Y15325
X37384Y14475
X34734Y10925
X34684Y9875
X34234Y8625
X32784Y8725
X32784Y8075
X32134Y6975
X30484Y8975
X30184Y9325
X30184Y10875
X29334Y10975
X31184Y10925
X31884Y11525
X31884Y11975
X33484Y10775
X36134Y8875
X36484Y7975
X35334Y7325
X35334Y5725
X37584Y8725
X39284Y8525
X32284Y14975
X32534Y16475
X30534Y16375
X30184Y14425
X29684Y13275
X27684Y10825
X26534Y11375
X25184Y12875
X23684Y12875
X21834Y11975
X20434Y14075
X21134Y14825
X22334Y14475
X23584Y14825
X26634Y14175
X20334Y16125
X19584Y16175
X18534Y16075
X17734Y16475
X17736Y17464
X18684Y18175
X18484Y18975
X19034Y20375
X20584Y20375
X20684Y18975
X20484Y18025
X19184Y15175
X19334Y13825
X18434Y12475
X19084Y10875
X19084Y9925
X17784Y10375
X17384Y10875
X16334Y10625
X15884Y11925
X15384Y13075
X15484Y13496
X14384Y12575
X13684Y12675
X13284Y12125
X12934Y12325
X12834Y13025
X12784Y14425
X13534Y14425
X14134Y14875
X13634Y16475
X14834Y17275
X14334Y18375
X14334Y19575
X16298Y17464
X16384Y15325
X17184Y14475
X14534Y10925
X14484Y9875
X14034Y8625
X12584Y8725
X12584Y8075
X11934Y6975
X10284Y8975
X9984Y9325
X9984Y10875
X9134Y10975
X10984Y10925
X11684Y11525
X11684Y11975
X13284Y10775
X15934Y8875
X16284Y7975
X15134Y7325
X15134Y5725
X17384Y8725
X19084Y8525
X12084Y14975
X12334Y16475
X10334Y16375
X9984Y14425
X9484Y13275
X7484Y10825
X6334Y11375
X4984Y12875
X6434Y14175
X15134Y25925
X15134Y27525
X16284Y28175
X15934Y29075
X17384Y28925
X17784Y30575
X17384Y31075
X16334Y30825
X15884Y32125
X15384Y33275
X15484Y33696
X14384Y32775
X13684Y32875
X13284Y32325
X12934Y32525
X12834Y33225
X12784Y34625
X13534Y34625
X14134Y35075
X13634Y36675
X14834Y37475
X14334Y38575
X14334Y39775
X16298Y37664
X17736Y37664
X17734Y36675
X18534Y36275
X19184Y35375
X19584Y36375
X20334Y36325
X21134Y35025
X20434Y34275
X19334Y34025
X18434Y32675
X19084Y31075
X19084Y30125
X19084Y28725
X21834Y32175
X23684Y33075
X25184Y33075
X26634Y34375
X26534Y31575
X27684Y31025
X29684Y33475
X30184Y34625
X30534Y36575
X32534Y36675
X32284Y35175
X40684Y38225
X40884Y39175
X40784Y40575
X42534Y34675
X43784Y35025
X58884Y39175
X59084Y38375
X60884Y38225
X61084Y39175
X60984Y40575
X59434Y40575
X60984Y20375
X61084Y18975
X60884Y18025
X27684Y51225
X26534Y51775
X25184Y53275
X23684Y53275
X21834Y52375
X20434Y54475
X21134Y55225
X22334Y54875
X23584Y55225
X26634Y54575
X29684Y53675
X30184Y54825
X30534Y56775
X20484Y58425
X20684Y59375
X20584Y60775
X19034Y60775
X18484Y59375
X18684Y58575
X17736Y57864
X17734Y56875
X18534Y56475
X19184Y55575
X19584Y56575
X20334Y56525
X19334Y54225
X18434Y52875
X19084Y51275
X19084Y50325
X17784Y50775
X17384Y51275
X16334Y51025
X15884Y52325
X15384Y53475
X15484Y53896
X14384Y52975
X13684Y53075
X13284Y52525
X12934Y52725
X12834Y53425
X12784Y54825
X13534Y54825
X14134Y55275
X12084Y55375
X12334Y56875
X13634Y56875
X14834Y57675
X14334Y58775
X14334Y59975
X16298Y57864
X16384Y55725
X17184Y54875
X14534Y51325
X14484Y50275
X14034Y49025
X12584Y49125
X12584Y48475
X11934Y47375
X10284Y49375
X9984Y49725
X9984Y51275
X9134Y51375
X10984Y51325
X11684Y51925
X11684Y52375
X13284Y51175
X15934Y49275
X16284Y48375
X15134Y47725
X15134Y46125
X17384Y49125
X19084Y48925
X19034Y40575
X18484Y39175
X18684Y38375
X20484Y38225
X20684Y39175
X20584Y40575
X16384Y35525
X17184Y34675
X14534Y31125
X14484Y30075
X14034Y28825
X12584Y28925
X12584Y28275
X11934Y27175
X10284Y29175
X9984Y29525
X9984Y31075
X9134Y31175
X10984Y31125
X11684Y31725
X11684Y32175
X13284Y30975
X9484Y33475
X9984Y34625
X10334Y36575
X12334Y36675
X12084Y35175
X7484Y31025
X6334Y31575
X4984Y33075
X6434Y34375
X22334Y34675
X23584Y35025
X7484Y51225
X6334Y51775
X4984Y53275
X6434Y54575
X9484Y53675
X9984Y54825
X10334Y56775
T03
X6334Y49775
X5334Y49775
X5334Y48775
X5334Y47775
X6334Y47775
X6334Y48775
X25534Y48775
X25534Y47775
X26534Y47775
X26534Y48775
X26534Y49775
X25534Y49775
X45734Y49775
X45734Y48775
X45734Y47775
X46734Y47775
X46734Y48775
X46734Y49775
X46734Y29575
X45734Y29575
X45734Y28575
X45734Y27575
X46734Y27575
X46734Y28575
X46734Y9375
X45734Y9375
X45734Y8375
X45734Y7375
X46734Y7375
X46734Y8375
X26534Y8375
X25534Y8375
X25534Y7375
X26534Y7375
X26534Y9375
X25534Y9375
X25534Y27575
X25534Y28575
X26534Y28575
X26534Y27575
X26534Y29575
X25534Y29575
X6334Y29575
X5334Y29575
X5334Y28575
X5334Y27575
X6334Y27575
X6334Y28575
X6334Y9375
X5334Y9375
X5334Y8375
X5334Y7375
X6334Y7375
X6334Y8375
T04
X6984Y13075
X8834Y13825
X12134Y9075
X17484Y13825
X20484Y12675
X20684Y8875
X27184Y13075
X29034Y13825
X32334Y9075
X37684Y13825
X40684Y12675
X40884Y8875
X47384Y13075
X49234Y13825
X52534Y9075
X57884Y13825
X60884Y12675
X61084Y8875
X61084Y29075
X60884Y32875
X57884Y34025
X52534Y29275
X49234Y34025
X47384Y33275
X40684Y32875
X37684Y34025
X40884Y29075
X32334Y29275
X29034Y34025
X27184Y33275
X20484Y32875
X17484Y34025
X20684Y29075
X12134Y29275
X8834Y34025
X6984Y33275
X12134Y49475
X8834Y54225
X6984Y53475
X17484Y54225
X20484Y53075
X20684Y49275
X27184Y53475
X29034Y54225
X32334Y49475
X37684Y54225
X40684Y53075
X40884Y49275
X47384Y53475
X49234Y54225
X52534Y49475
X57884Y54225
X60884Y53075
X61084Y49275
T05
X57423Y41075
X56045Y41075
X53423Y41075
X52045Y41075
X37223Y41075
X35845Y41075
X33223Y41075
X31845Y41075
X17023Y41075
X15645Y41075
X13023Y41075
X11645Y41075
X11645Y20875
X13023Y20875
X15645Y20875
X17023Y20875
X31845Y20875
X33223Y20875
X35845Y20875
X37223Y20875
X52045Y20875
X53423Y20875
X56045Y20875
X57423Y20875
X57423Y61275
X56045Y61275
X53423Y61275
X52045Y61275
X37223Y61275
X35845Y61275
X33223Y61275
X31845Y61275
X17023Y61275
X15645Y61275
X13023Y61275
X11645Y61275
T06
X11359Y59275
X13359Y59275
X15309Y59275
X17284Y59275
X31559Y59275
X33559Y59275
X35509Y59275
X37484Y59275
X51759Y59275
X53759Y59275
X55709Y59275
X57684Y59275
X57234Y43775
X56234Y43775
X55234Y43775
X54234Y43775
X53234Y43775
X52234Y43775
X51759Y39075
X53759Y39075
X55709Y39075
X57684Y39075
X57234Y23575
X56234Y23575
X55234Y23575
X54234Y23575
X53234Y23575
X52234Y23575
X51759Y18875
X53759Y18875
X55709Y18875
X57684Y18875
X57234Y3375
X56234Y3375
X55234Y3375
X54234Y3375
X53234Y3375
X52234Y3375
X37034Y3375
X36034Y3375
X35034Y3375
X34034Y3375
X33034Y3375
X32034Y3375
X16834Y3375
X15834Y3375
X14834Y3375
X13834Y3375
X12834Y3375
X11834Y3375
X11359Y18875
X13359Y18875
X15309Y18875
X17284Y18875
X16834Y23575
X15834Y23575
X14834Y23575
X13834Y23575
X12834Y23575
X11834Y23575
X11359Y39075
X13359Y39075
X15309Y39075
X17284Y39075
X16834Y43775
X15834Y43775
X14834Y43775
X13834Y43775
X12834Y43775
X11834Y43775
X32034Y43775
X33034Y43775
X34034Y43775
X35034Y43775
X36034Y43775
X37034Y43775
X37484Y39075
X35509Y39075
X33559Y39075
X31559Y39075
X32034Y23575
X33034Y23575
X34034Y23575
X35034Y23575
X36034Y23575
X37034Y23575
X37484Y18875
X35509Y18875
X33559Y18875
X31559Y18875
T07
X5334Y3875
X23334Y3875
X25534Y3875
X43534Y3875
X45734Y3875
X63734Y3875
X63734Y21875
X63734Y24075
X45734Y24075
X43534Y24075
X43534Y21875
X45734Y21875
X25534Y21875
X23334Y21875
X23334Y24075
X25534Y24075
X25534Y42075
X23334Y42075
X23334Y44275
X25534Y44275
X43534Y44275
X45734Y44275
X45734Y42075
X43534Y42075
X63734Y42075
X63734Y44275
X63734Y62275
X45734Y62275
X43534Y62275
X25534Y62275
X23334Y62275
X5334Y62275
X5334Y44275
X5334Y42075
X5334Y24075
X5334Y21875
T08
X9334Y26575
X19177Y26575
X29534Y26575
X39377Y26575
X49734Y26575
X59577Y26575
X59577Y6375
X49734Y6375
X39377Y6375
X29534Y6375
X19177Y6375
X9334Y6375
X9334Y46775
X19177Y46775
X29534Y46775
X39377Y46775
X49734Y46775
X59577Y46775
M30
