G75*
%MOIN*%
%OFA0B0*%
%FSLAX25Y25*%
%IPPOS*%
%LPD*%
%AMOC8*
5,1,8,0,0,1.08239X$1,22.5*
%
%ADD10C,0.13800*%
%ADD11C,0.03300*%
%ADD12R,0.08674X0.05524*%
%ADD13R,0.06115X0.03162*%
%ADD14C,0.08200*%
%ADD15R,0.05131X0.04737*%
%ADD16C,0.01990*%
%ADD17R,0.04737X0.05131*%
%ADD18R,0.03162X0.05524*%
%ADD19R,0.03300X0.05800*%
%ADD20C,0.00500*%
%ADD21C,0.08400*%
%ADD22R,0.08400X0.08400*%
%ADD23R,0.03600X0.01800*%
%ADD24R,0.03300X0.10200*%
%ADD25R,0.04146X0.09461*%
%ADD26R,0.04737X0.04934*%
%ADD27C,0.05800*%
%ADD28R,0.01706X0.04461*%
%ADD29C,0.22847*%
%ADD30C,0.01518*%
%ADD31R,0.05131X0.03359*%
%ADD32R,0.06706X0.16548*%
%ADD33C,0.04737*%
%ADD34C,0.05000*%
%ADD35C,0.06706*%
D10*
X0053342Y0038750D03*
X0233342Y0038750D03*
X0255342Y0038750D03*
X0435342Y0038750D03*
X0457342Y0038750D03*
X0637342Y0038750D03*
X0637342Y0218750D03*
X0637342Y0240750D03*
X0457342Y0240750D03*
X0435342Y0240750D03*
X0435342Y0218750D03*
X0457342Y0218750D03*
X0255342Y0218750D03*
X0255342Y0240750D03*
X0233342Y0240750D03*
X0233342Y0218750D03*
X0053342Y0218750D03*
X0053342Y0240750D03*
X0053342Y0420750D03*
X0053342Y0442750D03*
X0233342Y0442750D03*
X0255342Y0442750D03*
X0255342Y0420750D03*
X0233342Y0420750D03*
X0435342Y0420750D03*
X0457342Y0420750D03*
X0457342Y0442750D03*
X0435342Y0442750D03*
X0435342Y0622750D03*
X0457342Y0622750D03*
X0637342Y0622750D03*
X0637342Y0442750D03*
X0637342Y0420750D03*
X0255342Y0622750D03*
X0233342Y0622750D03*
X0053342Y0622750D03*
D11*
X0046342Y0629750D03*
X0248342Y0629750D03*
X0239842Y0436250D03*
X0248342Y0427750D03*
X0441842Y0436250D03*
X0450342Y0427750D03*
X0643842Y0436250D03*
X0450342Y0629750D03*
X0046342Y0427750D03*
X0239842Y0234250D03*
X0248342Y0225750D03*
X0441842Y0234250D03*
X0450342Y0225750D03*
X0643842Y0234250D03*
X0643842Y0032250D03*
X0441842Y0032250D03*
X0239842Y0032250D03*
X0046342Y0225750D03*
D12*
X0048873Y0139774D03*
X0048873Y0117726D03*
X0237810Y0117726D03*
X0250873Y0117726D03*
X0250873Y0139774D03*
X0237810Y0139774D03*
X0237810Y0319726D03*
X0250873Y0319726D03*
X0250873Y0341774D03*
X0237810Y0341774D03*
X0048873Y0341774D03*
X0048873Y0319726D03*
X0048873Y0521726D03*
X0048873Y0543774D03*
X0237810Y0543774D03*
X0250873Y0543774D03*
X0250873Y0521726D03*
X0237810Y0521726D03*
X0439810Y0521726D03*
X0452873Y0521726D03*
X0452873Y0543774D03*
X0439810Y0543774D03*
X0641810Y0543774D03*
X0641810Y0521726D03*
X0641810Y0341774D03*
X0641810Y0319726D03*
X0452873Y0319726D03*
X0439810Y0319726D03*
X0439810Y0341774D03*
X0452873Y0341774D03*
X0452873Y0139774D03*
X0439810Y0139774D03*
X0439810Y0117726D03*
X0452873Y0117726D03*
X0641810Y0117726D03*
X0641810Y0139774D03*
D13*
X0627342Y0134656D03*
X0627342Y0130719D03*
X0627342Y0126781D03*
X0627342Y0122844D03*
X0467342Y0122844D03*
X0467342Y0126781D03*
X0467342Y0130719D03*
X0467342Y0134656D03*
X0425342Y0134656D03*
X0425342Y0130719D03*
X0425342Y0126781D03*
X0425342Y0122844D03*
X0265342Y0122844D03*
X0265342Y0126781D03*
X0265342Y0130719D03*
X0265342Y0134656D03*
X0223342Y0134656D03*
X0223342Y0130719D03*
X0223342Y0126781D03*
X0223342Y0122844D03*
X0063342Y0122844D03*
X0063342Y0126781D03*
X0063342Y0130719D03*
X0063342Y0134656D03*
X0063342Y0324844D03*
X0063342Y0328781D03*
X0063342Y0332719D03*
X0063342Y0336656D03*
X0223342Y0336656D03*
X0223342Y0332719D03*
X0223342Y0328781D03*
X0223342Y0324844D03*
X0265342Y0324844D03*
X0265342Y0328781D03*
X0265342Y0332719D03*
X0265342Y0336656D03*
X0425342Y0336656D03*
X0425342Y0332719D03*
X0425342Y0328781D03*
X0425342Y0324844D03*
X0467342Y0324844D03*
X0467342Y0328781D03*
X0467342Y0332719D03*
X0467342Y0336656D03*
X0627342Y0336656D03*
X0627342Y0332719D03*
X0627342Y0328781D03*
X0627342Y0324844D03*
X0627342Y0526844D03*
X0627342Y0530781D03*
X0627342Y0534719D03*
X0627342Y0538656D03*
X0467342Y0538656D03*
X0467342Y0534719D03*
X0467342Y0530781D03*
X0467342Y0526844D03*
X0425342Y0526844D03*
X0425342Y0530781D03*
X0425342Y0534719D03*
X0425342Y0538656D03*
X0265342Y0538656D03*
X0265342Y0534719D03*
X0265342Y0530781D03*
X0265342Y0526844D03*
X0223342Y0526844D03*
X0223342Y0530781D03*
X0223342Y0534719D03*
X0223342Y0538656D03*
X0063342Y0538656D03*
X0063342Y0534719D03*
X0063342Y0530781D03*
X0063342Y0526844D03*
D14*
X0113592Y0592750D03*
X0133592Y0592750D03*
X0153092Y0592750D03*
X0172842Y0592750D03*
X0315592Y0592750D03*
X0335592Y0592750D03*
X0355092Y0592750D03*
X0374842Y0592750D03*
X0517592Y0592750D03*
X0537592Y0592750D03*
X0557092Y0592750D03*
X0576842Y0592750D03*
X0572342Y0437750D03*
X0562342Y0437750D03*
X0552342Y0437750D03*
X0542342Y0437750D03*
X0532342Y0437750D03*
X0522342Y0437750D03*
X0517592Y0390750D03*
X0537592Y0390750D03*
X0557092Y0390750D03*
X0576842Y0390750D03*
X0572342Y0235750D03*
X0562342Y0235750D03*
X0552342Y0235750D03*
X0542342Y0235750D03*
X0532342Y0235750D03*
X0522342Y0235750D03*
X0517592Y0188750D03*
X0537592Y0188750D03*
X0557092Y0188750D03*
X0576842Y0188750D03*
X0572342Y0033750D03*
X0562342Y0033750D03*
X0552342Y0033750D03*
X0542342Y0033750D03*
X0532342Y0033750D03*
X0522342Y0033750D03*
X0370342Y0033750D03*
X0360342Y0033750D03*
X0350342Y0033750D03*
X0340342Y0033750D03*
X0330342Y0033750D03*
X0320342Y0033750D03*
X0168342Y0033750D03*
X0158342Y0033750D03*
X0148342Y0033750D03*
X0138342Y0033750D03*
X0128342Y0033750D03*
X0118342Y0033750D03*
X0113592Y0188750D03*
X0133592Y0188750D03*
X0153092Y0188750D03*
X0172842Y0188750D03*
X0168342Y0235750D03*
X0158342Y0235750D03*
X0148342Y0235750D03*
X0138342Y0235750D03*
X0128342Y0235750D03*
X0118342Y0235750D03*
X0113592Y0390750D03*
X0133592Y0390750D03*
X0153092Y0390750D03*
X0172842Y0390750D03*
X0168342Y0437750D03*
X0158342Y0437750D03*
X0148342Y0437750D03*
X0138342Y0437750D03*
X0128342Y0437750D03*
X0118342Y0437750D03*
X0320342Y0437750D03*
X0330342Y0437750D03*
X0340342Y0437750D03*
X0350342Y0437750D03*
X0360342Y0437750D03*
X0370342Y0437750D03*
X0374842Y0390750D03*
X0355092Y0390750D03*
X0335592Y0390750D03*
X0315592Y0390750D03*
X0320342Y0235750D03*
X0330342Y0235750D03*
X0340342Y0235750D03*
X0350342Y0235750D03*
X0360342Y0235750D03*
X0370342Y0235750D03*
X0374842Y0188750D03*
X0355092Y0188750D03*
X0335592Y0188750D03*
X0315592Y0188750D03*
D15*
X0372495Y0160250D03*
X0379188Y0160250D03*
X0390995Y0166750D03*
X0397688Y0166750D03*
X0397688Y0173750D03*
X0390995Y0173750D03*
X0397995Y0156250D03*
X0404688Y0156250D03*
X0400188Y0124750D03*
X0393495Y0124750D03*
X0411495Y0103750D03*
X0418188Y0103750D03*
X0418688Y0093750D03*
X0411995Y0093750D03*
X0411995Y0083750D03*
X0418688Y0083750D03*
X0513495Y0092750D03*
X0520188Y0092750D03*
X0574495Y0160250D03*
X0581188Y0160250D03*
X0592995Y0166750D03*
X0599688Y0166750D03*
X0599688Y0173750D03*
X0592995Y0173750D03*
X0599995Y0156250D03*
X0606688Y0156250D03*
X0602188Y0124750D03*
X0595495Y0124750D03*
X0613495Y0103750D03*
X0620188Y0103750D03*
X0620688Y0093750D03*
X0613995Y0093750D03*
X0613995Y0083750D03*
X0620688Y0083750D03*
X0620688Y0285750D03*
X0613995Y0285750D03*
X0613995Y0295750D03*
X0620688Y0295750D03*
X0620188Y0305750D03*
X0613495Y0305750D03*
X0602188Y0326750D03*
X0595495Y0326750D03*
X0599995Y0358250D03*
X0606688Y0358250D03*
X0599688Y0368750D03*
X0592995Y0368750D03*
X0592995Y0375750D03*
X0599688Y0375750D03*
X0581188Y0362250D03*
X0574495Y0362250D03*
X0520188Y0294750D03*
X0513495Y0294750D03*
X0418688Y0295750D03*
X0411995Y0295750D03*
X0411495Y0305750D03*
X0418188Y0305750D03*
X0418688Y0285750D03*
X0411995Y0285750D03*
X0400188Y0326750D03*
X0393495Y0326750D03*
X0397995Y0358250D03*
X0404688Y0358250D03*
X0397688Y0368750D03*
X0390995Y0368750D03*
X0390995Y0375750D03*
X0397688Y0375750D03*
X0379188Y0362250D03*
X0372495Y0362250D03*
X0318188Y0294750D03*
X0311495Y0294750D03*
X0216688Y0295750D03*
X0209995Y0295750D03*
X0209495Y0305750D03*
X0216188Y0305750D03*
X0216688Y0285750D03*
X0209995Y0285750D03*
X0198188Y0326750D03*
X0191495Y0326750D03*
X0195995Y0358250D03*
X0202688Y0358250D03*
X0195688Y0368750D03*
X0188995Y0368750D03*
X0188995Y0375750D03*
X0195688Y0375750D03*
X0177188Y0362250D03*
X0170495Y0362250D03*
X0116188Y0294750D03*
X0109495Y0294750D03*
X0188995Y0173750D03*
X0195688Y0173750D03*
X0195688Y0166750D03*
X0188995Y0166750D03*
X0195995Y0156250D03*
X0202688Y0156250D03*
X0177188Y0160250D03*
X0170495Y0160250D03*
X0191495Y0124750D03*
X0198188Y0124750D03*
X0209495Y0103750D03*
X0216188Y0103750D03*
X0216688Y0093750D03*
X0209995Y0093750D03*
X0209995Y0083750D03*
X0216688Y0083750D03*
X0311495Y0092750D03*
X0318188Y0092750D03*
X0116188Y0092750D03*
X0109495Y0092750D03*
X0209995Y0487750D03*
X0216688Y0487750D03*
X0216688Y0497750D03*
X0209995Y0497750D03*
X0209495Y0507750D03*
X0216188Y0507750D03*
X0198188Y0528750D03*
X0191495Y0528750D03*
X0195995Y0560250D03*
X0202688Y0560250D03*
X0195688Y0570750D03*
X0188995Y0570750D03*
X0188995Y0577750D03*
X0195688Y0577750D03*
X0177188Y0564250D03*
X0170495Y0564250D03*
X0116188Y0496750D03*
X0109495Y0496750D03*
X0311495Y0496750D03*
X0318188Y0496750D03*
X0393495Y0528750D03*
X0400188Y0528750D03*
X0411495Y0507750D03*
X0418188Y0507750D03*
X0418688Y0497750D03*
X0411995Y0497750D03*
X0411995Y0487750D03*
X0418688Y0487750D03*
X0404688Y0560250D03*
X0397995Y0560250D03*
X0397688Y0570750D03*
X0390995Y0570750D03*
X0390995Y0577750D03*
X0397688Y0577750D03*
X0379188Y0564250D03*
X0372495Y0564250D03*
X0513495Y0496750D03*
X0520188Y0496750D03*
X0595495Y0528750D03*
X0602188Y0528750D03*
X0613495Y0507750D03*
X0620188Y0507750D03*
X0620688Y0497750D03*
X0613995Y0497750D03*
X0613995Y0487750D03*
X0620688Y0487750D03*
X0606688Y0560250D03*
X0599995Y0560250D03*
X0599688Y0570750D03*
X0592995Y0570750D03*
X0592995Y0577750D03*
X0599688Y0577750D03*
X0581188Y0564250D03*
X0574495Y0564250D03*
D16*
X0632516Y0509123D02*
X0632516Y0506377D01*
X0632516Y0509123D02*
X0635262Y0509123D01*
X0635262Y0506377D01*
X0632516Y0506377D01*
X0632516Y0508267D02*
X0635262Y0508267D01*
X0639422Y0509123D02*
X0639422Y0506377D01*
X0639422Y0509123D02*
X0642168Y0509123D01*
X0642168Y0506377D01*
X0639422Y0506377D01*
X0639422Y0508267D02*
X0642168Y0508267D01*
X0639422Y0499123D02*
X0639422Y0496377D01*
X0639422Y0499123D02*
X0642168Y0499123D01*
X0642168Y0496377D01*
X0639422Y0496377D01*
X0639422Y0498267D02*
X0642168Y0498267D01*
X0632516Y0499123D02*
X0632516Y0496377D01*
X0632516Y0499123D02*
X0635262Y0499123D01*
X0635262Y0496377D01*
X0632516Y0496377D01*
X0632516Y0498267D02*
X0635262Y0498267D01*
X0632516Y0489123D02*
X0632516Y0486377D01*
X0632516Y0489123D02*
X0635262Y0489123D01*
X0635262Y0486377D01*
X0632516Y0486377D01*
X0632516Y0488267D02*
X0635262Y0488267D01*
X0639422Y0489123D02*
X0639422Y0486377D01*
X0639422Y0489123D02*
X0642168Y0489123D01*
X0642168Y0486377D01*
X0639422Y0486377D01*
X0639422Y0488267D02*
X0642168Y0488267D01*
X0639422Y0307123D02*
X0639422Y0304377D01*
X0639422Y0307123D02*
X0642168Y0307123D01*
X0642168Y0304377D01*
X0639422Y0304377D01*
X0639422Y0306267D02*
X0642168Y0306267D01*
X0632516Y0307123D02*
X0632516Y0304377D01*
X0632516Y0307123D02*
X0635262Y0307123D01*
X0635262Y0304377D01*
X0632516Y0304377D01*
X0632516Y0306267D02*
X0635262Y0306267D01*
X0632516Y0297123D02*
X0632516Y0294377D01*
X0632516Y0297123D02*
X0635262Y0297123D01*
X0635262Y0294377D01*
X0632516Y0294377D01*
X0632516Y0296267D02*
X0635262Y0296267D01*
X0639422Y0297123D02*
X0639422Y0294377D01*
X0639422Y0297123D02*
X0642168Y0297123D01*
X0642168Y0294377D01*
X0639422Y0294377D01*
X0639422Y0296267D02*
X0642168Y0296267D01*
X0639422Y0287123D02*
X0639422Y0284377D01*
X0639422Y0287123D02*
X0642168Y0287123D01*
X0642168Y0284377D01*
X0639422Y0284377D01*
X0639422Y0286267D02*
X0642168Y0286267D01*
X0632516Y0287123D02*
X0632516Y0284377D01*
X0632516Y0287123D02*
X0635262Y0287123D01*
X0635262Y0284377D01*
X0632516Y0284377D01*
X0632516Y0286267D02*
X0635262Y0286267D01*
X0632516Y0105123D02*
X0632516Y0102377D01*
X0632516Y0105123D02*
X0635262Y0105123D01*
X0635262Y0102377D01*
X0632516Y0102377D01*
X0632516Y0104267D02*
X0635262Y0104267D01*
X0639422Y0105123D02*
X0639422Y0102377D01*
X0639422Y0105123D02*
X0642168Y0105123D01*
X0642168Y0102377D01*
X0639422Y0102377D01*
X0639422Y0104267D02*
X0642168Y0104267D01*
X0639422Y0095123D02*
X0639422Y0092377D01*
X0639422Y0095123D02*
X0642168Y0095123D01*
X0642168Y0092377D01*
X0639422Y0092377D01*
X0639422Y0094267D02*
X0642168Y0094267D01*
X0632516Y0095123D02*
X0632516Y0092377D01*
X0632516Y0095123D02*
X0635262Y0095123D01*
X0635262Y0092377D01*
X0632516Y0092377D01*
X0632516Y0094267D02*
X0635262Y0094267D01*
X0632516Y0085123D02*
X0632516Y0082377D01*
X0632516Y0085123D02*
X0635262Y0085123D01*
X0635262Y0082377D01*
X0632516Y0082377D01*
X0632516Y0084267D02*
X0635262Y0084267D01*
X0639422Y0085123D02*
X0639422Y0082377D01*
X0639422Y0085123D02*
X0642168Y0085123D01*
X0642168Y0082377D01*
X0639422Y0082377D01*
X0639422Y0084267D02*
X0642168Y0084267D01*
X0437422Y0085123D02*
X0437422Y0082377D01*
X0437422Y0085123D02*
X0440168Y0085123D01*
X0440168Y0082377D01*
X0437422Y0082377D01*
X0437422Y0084267D02*
X0440168Y0084267D01*
X0430516Y0085123D02*
X0430516Y0082377D01*
X0430516Y0085123D02*
X0433262Y0085123D01*
X0433262Y0082377D01*
X0430516Y0082377D01*
X0430516Y0084267D02*
X0433262Y0084267D01*
X0430516Y0092377D02*
X0430516Y0095123D01*
X0433262Y0095123D01*
X0433262Y0092377D01*
X0430516Y0092377D01*
X0430516Y0094267D02*
X0433262Y0094267D01*
X0437422Y0095123D02*
X0437422Y0092377D01*
X0437422Y0095123D02*
X0440168Y0095123D01*
X0440168Y0092377D01*
X0437422Y0092377D01*
X0437422Y0094267D02*
X0440168Y0094267D01*
X0437422Y0102377D02*
X0437422Y0105123D01*
X0440168Y0105123D01*
X0440168Y0102377D01*
X0437422Y0102377D01*
X0437422Y0104267D02*
X0440168Y0104267D01*
X0430516Y0105123D02*
X0430516Y0102377D01*
X0430516Y0105123D02*
X0433262Y0105123D01*
X0433262Y0102377D01*
X0430516Y0102377D01*
X0430516Y0104267D02*
X0433262Y0104267D01*
X0430516Y0284377D02*
X0430516Y0287123D01*
X0433262Y0287123D01*
X0433262Y0284377D01*
X0430516Y0284377D01*
X0430516Y0286267D02*
X0433262Y0286267D01*
X0437422Y0287123D02*
X0437422Y0284377D01*
X0437422Y0287123D02*
X0440168Y0287123D01*
X0440168Y0284377D01*
X0437422Y0284377D01*
X0437422Y0286267D02*
X0440168Y0286267D01*
X0437422Y0294377D02*
X0437422Y0297123D01*
X0440168Y0297123D01*
X0440168Y0294377D01*
X0437422Y0294377D01*
X0437422Y0296267D02*
X0440168Y0296267D01*
X0430516Y0297123D02*
X0430516Y0294377D01*
X0430516Y0297123D02*
X0433262Y0297123D01*
X0433262Y0294377D01*
X0430516Y0294377D01*
X0430516Y0296267D02*
X0433262Y0296267D01*
X0430516Y0304377D02*
X0430516Y0307123D01*
X0433262Y0307123D01*
X0433262Y0304377D01*
X0430516Y0304377D01*
X0430516Y0306267D02*
X0433262Y0306267D01*
X0437422Y0307123D02*
X0437422Y0304377D01*
X0437422Y0307123D02*
X0440168Y0307123D01*
X0440168Y0304377D01*
X0437422Y0304377D01*
X0437422Y0306267D02*
X0440168Y0306267D01*
X0437422Y0486377D02*
X0437422Y0489123D01*
X0440168Y0489123D01*
X0440168Y0486377D01*
X0437422Y0486377D01*
X0437422Y0488267D02*
X0440168Y0488267D01*
X0430516Y0489123D02*
X0430516Y0486377D01*
X0430516Y0489123D02*
X0433262Y0489123D01*
X0433262Y0486377D01*
X0430516Y0486377D01*
X0430516Y0488267D02*
X0433262Y0488267D01*
X0430516Y0496377D02*
X0430516Y0499123D01*
X0433262Y0499123D01*
X0433262Y0496377D01*
X0430516Y0496377D01*
X0430516Y0498267D02*
X0433262Y0498267D01*
X0437422Y0499123D02*
X0437422Y0496377D01*
X0437422Y0499123D02*
X0440168Y0499123D01*
X0440168Y0496377D01*
X0437422Y0496377D01*
X0437422Y0498267D02*
X0440168Y0498267D01*
X0437422Y0506377D02*
X0437422Y0509123D01*
X0440168Y0509123D01*
X0440168Y0506377D01*
X0437422Y0506377D01*
X0437422Y0508267D02*
X0440168Y0508267D01*
X0430516Y0509123D02*
X0430516Y0506377D01*
X0430516Y0509123D02*
X0433262Y0509123D01*
X0433262Y0506377D01*
X0430516Y0506377D01*
X0430516Y0508267D02*
X0433262Y0508267D01*
X0235422Y0509123D02*
X0235422Y0506377D01*
X0235422Y0509123D02*
X0238168Y0509123D01*
X0238168Y0506377D01*
X0235422Y0506377D01*
X0235422Y0508267D02*
X0238168Y0508267D01*
X0228516Y0509123D02*
X0228516Y0506377D01*
X0228516Y0509123D02*
X0231262Y0509123D01*
X0231262Y0506377D01*
X0228516Y0506377D01*
X0228516Y0508267D02*
X0231262Y0508267D01*
X0228516Y0499123D02*
X0228516Y0496377D01*
X0228516Y0499123D02*
X0231262Y0499123D01*
X0231262Y0496377D01*
X0228516Y0496377D01*
X0228516Y0498267D02*
X0231262Y0498267D01*
X0235422Y0499123D02*
X0235422Y0496377D01*
X0235422Y0499123D02*
X0238168Y0499123D01*
X0238168Y0496377D01*
X0235422Y0496377D01*
X0235422Y0498267D02*
X0238168Y0498267D01*
X0235422Y0489123D02*
X0235422Y0486377D01*
X0235422Y0489123D02*
X0238168Y0489123D01*
X0238168Y0486377D01*
X0235422Y0486377D01*
X0235422Y0488267D02*
X0238168Y0488267D01*
X0228516Y0489123D02*
X0228516Y0486377D01*
X0228516Y0489123D02*
X0231262Y0489123D01*
X0231262Y0486377D01*
X0228516Y0486377D01*
X0228516Y0488267D02*
X0231262Y0488267D01*
X0228516Y0307123D02*
X0228516Y0304377D01*
X0228516Y0307123D02*
X0231262Y0307123D01*
X0231262Y0304377D01*
X0228516Y0304377D01*
X0228516Y0306267D02*
X0231262Y0306267D01*
X0235422Y0307123D02*
X0235422Y0304377D01*
X0235422Y0307123D02*
X0238168Y0307123D01*
X0238168Y0304377D01*
X0235422Y0304377D01*
X0235422Y0306267D02*
X0238168Y0306267D01*
X0235422Y0297123D02*
X0235422Y0294377D01*
X0235422Y0297123D02*
X0238168Y0297123D01*
X0238168Y0294377D01*
X0235422Y0294377D01*
X0235422Y0296267D02*
X0238168Y0296267D01*
X0228516Y0297123D02*
X0228516Y0294377D01*
X0228516Y0297123D02*
X0231262Y0297123D01*
X0231262Y0294377D01*
X0228516Y0294377D01*
X0228516Y0296267D02*
X0231262Y0296267D01*
X0228516Y0287123D02*
X0228516Y0284377D01*
X0228516Y0287123D02*
X0231262Y0287123D01*
X0231262Y0284377D01*
X0228516Y0284377D01*
X0228516Y0286267D02*
X0231262Y0286267D01*
X0235422Y0287123D02*
X0235422Y0284377D01*
X0235422Y0287123D02*
X0238168Y0287123D01*
X0238168Y0284377D01*
X0235422Y0284377D01*
X0235422Y0286267D02*
X0238168Y0286267D01*
X0235422Y0105123D02*
X0235422Y0102377D01*
X0235422Y0105123D02*
X0238168Y0105123D01*
X0238168Y0102377D01*
X0235422Y0102377D01*
X0235422Y0104267D02*
X0238168Y0104267D01*
X0228516Y0105123D02*
X0228516Y0102377D01*
X0228516Y0105123D02*
X0231262Y0105123D01*
X0231262Y0102377D01*
X0228516Y0102377D01*
X0228516Y0104267D02*
X0231262Y0104267D01*
X0228516Y0095123D02*
X0228516Y0092377D01*
X0228516Y0095123D02*
X0231262Y0095123D01*
X0231262Y0092377D01*
X0228516Y0092377D01*
X0228516Y0094267D02*
X0231262Y0094267D01*
X0235422Y0095123D02*
X0235422Y0092377D01*
X0235422Y0095123D02*
X0238168Y0095123D01*
X0238168Y0092377D01*
X0235422Y0092377D01*
X0235422Y0094267D02*
X0238168Y0094267D01*
X0235422Y0085123D02*
X0235422Y0082377D01*
X0235422Y0085123D02*
X0238168Y0085123D01*
X0238168Y0082377D01*
X0235422Y0082377D01*
X0235422Y0084267D02*
X0238168Y0084267D01*
X0228516Y0085123D02*
X0228516Y0082377D01*
X0228516Y0085123D02*
X0231262Y0085123D01*
X0231262Y0082377D01*
X0228516Y0082377D01*
X0228516Y0084267D02*
X0231262Y0084267D01*
D17*
X0197342Y0142904D03*
X0197342Y0149596D03*
X0186342Y0149596D03*
X0179842Y0149596D03*
X0179842Y0142904D03*
X0186342Y0142904D03*
X0202842Y0166904D03*
X0202842Y0173596D03*
X0217342Y0157096D03*
X0217342Y0150404D03*
X0229342Y0150404D03*
X0229342Y0157096D03*
X0261342Y0155404D03*
X0261342Y0162096D03*
X0269342Y0162096D03*
X0269342Y0155404D03*
X0290342Y0132096D03*
X0290342Y0125404D03*
X0318342Y0084596D03*
X0318342Y0077904D03*
X0332842Y0077904D03*
X0332842Y0084596D03*
X0353342Y0145404D03*
X0353342Y0152096D03*
X0381842Y0149596D03*
X0388342Y0149596D03*
X0388342Y0142904D03*
X0381842Y0142904D03*
X0399342Y0142904D03*
X0399342Y0149596D03*
X0404842Y0166904D03*
X0404842Y0173596D03*
X0419342Y0157096D03*
X0419342Y0150404D03*
X0431342Y0150404D03*
X0431342Y0157096D03*
X0463342Y0155404D03*
X0463342Y0162096D03*
X0471342Y0162096D03*
X0471342Y0155404D03*
X0492342Y0132096D03*
X0492342Y0125404D03*
X0520342Y0084596D03*
X0520342Y0077904D03*
X0534842Y0077904D03*
X0534842Y0084596D03*
X0555342Y0145404D03*
X0555342Y0152096D03*
X0583842Y0149596D03*
X0590342Y0149596D03*
X0590342Y0142904D03*
X0583842Y0142904D03*
X0601342Y0142904D03*
X0601342Y0149596D03*
X0606842Y0166904D03*
X0606842Y0173596D03*
X0621342Y0157096D03*
X0621342Y0150404D03*
X0633342Y0150404D03*
X0633342Y0157096D03*
X0567342Y0179404D03*
X0567342Y0186096D03*
X0534842Y0279904D03*
X0534842Y0286596D03*
X0520342Y0286596D03*
X0520342Y0279904D03*
X0492342Y0327404D03*
X0492342Y0334096D03*
X0471342Y0357404D03*
X0471342Y0364096D03*
X0463342Y0364096D03*
X0463342Y0357404D03*
X0431342Y0359096D03*
X0431342Y0352404D03*
X0419342Y0352404D03*
X0419342Y0359096D03*
X0404842Y0368904D03*
X0404842Y0375596D03*
X0399342Y0351596D03*
X0399342Y0344904D03*
X0388342Y0344904D03*
X0381842Y0344904D03*
X0381842Y0351596D03*
X0388342Y0351596D03*
X0353342Y0354096D03*
X0353342Y0347404D03*
X0365342Y0381404D03*
X0365342Y0388096D03*
X0290342Y0334096D03*
X0290342Y0327404D03*
X0269342Y0357404D03*
X0269342Y0364096D03*
X0261342Y0364096D03*
X0261342Y0357404D03*
X0229342Y0359096D03*
X0229342Y0352404D03*
X0217342Y0352404D03*
X0217342Y0359096D03*
X0202842Y0368904D03*
X0202842Y0375596D03*
X0197342Y0351596D03*
X0197342Y0344904D03*
X0186342Y0344904D03*
X0179842Y0344904D03*
X0179842Y0351596D03*
X0186342Y0351596D03*
X0151342Y0354096D03*
X0151342Y0347404D03*
X0163342Y0381404D03*
X0163342Y0388096D03*
X0088342Y0334096D03*
X0088342Y0327404D03*
X0067342Y0357404D03*
X0067342Y0364096D03*
X0059342Y0364096D03*
X0059342Y0357404D03*
X0116342Y0286596D03*
X0116342Y0279904D03*
X0130842Y0279904D03*
X0130842Y0286596D03*
X0163342Y0186096D03*
X0163342Y0179404D03*
X0151342Y0152096D03*
X0151342Y0145404D03*
X0130842Y0084596D03*
X0130842Y0077904D03*
X0116342Y0077904D03*
X0116342Y0084596D03*
X0088342Y0125404D03*
X0088342Y0132096D03*
X0067342Y0155404D03*
X0067342Y0162096D03*
X0059342Y0162096D03*
X0059342Y0155404D03*
X0318342Y0279904D03*
X0318342Y0286596D03*
X0332842Y0286596D03*
X0332842Y0279904D03*
X0365342Y0186096D03*
X0365342Y0179404D03*
X0555342Y0347404D03*
X0555342Y0354096D03*
X0583842Y0351596D03*
X0590342Y0351596D03*
X0590342Y0344904D03*
X0583842Y0344904D03*
X0601342Y0344904D03*
X0601342Y0351596D03*
X0606842Y0368904D03*
X0606842Y0375596D03*
X0621342Y0359096D03*
X0621342Y0352404D03*
X0633342Y0352404D03*
X0633342Y0359096D03*
X0567342Y0381404D03*
X0567342Y0388096D03*
X0534842Y0481904D03*
X0534842Y0488596D03*
X0520342Y0488596D03*
X0520342Y0481904D03*
X0492342Y0529404D03*
X0492342Y0536096D03*
X0471342Y0559404D03*
X0471342Y0566096D03*
X0463342Y0566096D03*
X0463342Y0559404D03*
X0431342Y0561096D03*
X0431342Y0554404D03*
X0419342Y0554404D03*
X0419342Y0561096D03*
X0404842Y0570904D03*
X0404842Y0577596D03*
X0399342Y0553596D03*
X0399342Y0546904D03*
X0388342Y0546904D03*
X0381842Y0546904D03*
X0381842Y0553596D03*
X0388342Y0553596D03*
X0353342Y0556096D03*
X0353342Y0549404D03*
X0365342Y0583404D03*
X0365342Y0590096D03*
X0290342Y0536096D03*
X0290342Y0529404D03*
X0269342Y0559404D03*
X0269342Y0566096D03*
X0261342Y0566096D03*
X0261342Y0559404D03*
X0229342Y0561096D03*
X0229342Y0554404D03*
X0217342Y0554404D03*
X0217342Y0561096D03*
X0202842Y0570904D03*
X0202842Y0577596D03*
X0197342Y0553596D03*
X0197342Y0546904D03*
X0186342Y0546904D03*
X0179842Y0546904D03*
X0179842Y0553596D03*
X0186342Y0553596D03*
X0151342Y0556096D03*
X0151342Y0549404D03*
X0163342Y0583404D03*
X0163342Y0590096D03*
X0088342Y0536096D03*
X0088342Y0529404D03*
X0067342Y0559404D03*
X0067342Y0566096D03*
X0059342Y0566096D03*
X0059342Y0559404D03*
X0116342Y0488596D03*
X0116342Y0481904D03*
X0130842Y0481904D03*
X0130842Y0488596D03*
X0318342Y0488596D03*
X0318342Y0481904D03*
X0332842Y0481904D03*
X0332842Y0488596D03*
X0555342Y0549404D03*
X0555342Y0556096D03*
X0583842Y0553596D03*
X0590342Y0553596D03*
X0590342Y0546904D03*
X0583842Y0546904D03*
X0601342Y0546904D03*
X0601342Y0553596D03*
X0621342Y0554404D03*
X0621342Y0561096D03*
X0633342Y0561096D03*
X0633342Y0554404D03*
X0606842Y0570904D03*
X0606842Y0577596D03*
X0567342Y0583404D03*
X0567342Y0590096D03*
D18*
X0559842Y0518774D03*
X0554842Y0518774D03*
X0549842Y0518774D03*
X0544842Y0518774D03*
X0539842Y0518774D03*
X0534842Y0518774D03*
X0529842Y0518774D03*
X0529842Y0496726D03*
X0534842Y0496726D03*
X0539842Y0496726D03*
X0544842Y0496726D03*
X0549842Y0496726D03*
X0554842Y0496726D03*
X0559842Y0496726D03*
X0559842Y0316774D03*
X0554842Y0316774D03*
X0549842Y0316774D03*
X0544842Y0316774D03*
X0539842Y0316774D03*
X0534842Y0316774D03*
X0529842Y0316774D03*
X0529842Y0294726D03*
X0534842Y0294726D03*
X0539842Y0294726D03*
X0544842Y0294726D03*
X0549842Y0294726D03*
X0554842Y0294726D03*
X0559842Y0294726D03*
X0559842Y0114774D03*
X0554842Y0114774D03*
X0549842Y0114774D03*
X0544842Y0114774D03*
X0539842Y0114774D03*
X0534842Y0114774D03*
X0529842Y0114774D03*
X0529842Y0092726D03*
X0534842Y0092726D03*
X0539842Y0092726D03*
X0544842Y0092726D03*
X0549842Y0092726D03*
X0554842Y0092726D03*
X0559842Y0092726D03*
X0357842Y0092726D03*
X0352842Y0092726D03*
X0347842Y0092726D03*
X0342842Y0092726D03*
X0337842Y0092726D03*
X0332842Y0092726D03*
X0327842Y0092726D03*
X0327842Y0114774D03*
X0332842Y0114774D03*
X0337842Y0114774D03*
X0342842Y0114774D03*
X0347842Y0114774D03*
X0352842Y0114774D03*
X0357842Y0114774D03*
X0357842Y0294726D03*
X0352842Y0294726D03*
X0347842Y0294726D03*
X0342842Y0294726D03*
X0337842Y0294726D03*
X0332842Y0294726D03*
X0327842Y0294726D03*
X0327842Y0316774D03*
X0332842Y0316774D03*
X0337842Y0316774D03*
X0342842Y0316774D03*
X0347842Y0316774D03*
X0352842Y0316774D03*
X0357842Y0316774D03*
X0357842Y0496726D03*
X0352842Y0496726D03*
X0347842Y0496726D03*
X0342842Y0496726D03*
X0337842Y0496726D03*
X0332842Y0496726D03*
X0327842Y0496726D03*
X0327842Y0518774D03*
X0332842Y0518774D03*
X0337842Y0518774D03*
X0342842Y0518774D03*
X0347842Y0518774D03*
X0352842Y0518774D03*
X0357842Y0518774D03*
X0155842Y0518774D03*
X0150842Y0518774D03*
X0145842Y0518774D03*
X0140842Y0518774D03*
X0135842Y0518774D03*
X0130842Y0518774D03*
X0125842Y0518774D03*
X0125842Y0496726D03*
X0130842Y0496726D03*
X0135842Y0496726D03*
X0140842Y0496726D03*
X0145842Y0496726D03*
X0150842Y0496726D03*
X0155842Y0496726D03*
X0155842Y0316774D03*
X0150842Y0316774D03*
X0145842Y0316774D03*
X0140842Y0316774D03*
X0135842Y0316774D03*
X0130842Y0316774D03*
X0125842Y0316774D03*
X0125842Y0294726D03*
X0130842Y0294726D03*
X0135842Y0294726D03*
X0140842Y0294726D03*
X0145842Y0294726D03*
X0150842Y0294726D03*
X0155842Y0294726D03*
X0155842Y0114774D03*
X0150842Y0114774D03*
X0145842Y0114774D03*
X0140842Y0114774D03*
X0135842Y0114774D03*
X0130842Y0114774D03*
X0125842Y0114774D03*
X0125842Y0092726D03*
X0130842Y0092726D03*
X0135842Y0092726D03*
X0140842Y0092726D03*
X0145842Y0092726D03*
X0150842Y0092726D03*
X0155842Y0092726D03*
D19*
X0211342Y0073750D03*
X0215342Y0073750D03*
X0219342Y0168750D03*
X0223342Y0168750D03*
X0227342Y0168750D03*
X0261342Y0168750D03*
X0265342Y0168750D03*
X0269342Y0168750D03*
X0215342Y0275750D03*
X0211342Y0275750D03*
X0219342Y0370750D03*
X0223342Y0370750D03*
X0227342Y0370750D03*
X0261342Y0370750D03*
X0265342Y0370750D03*
X0269342Y0370750D03*
X0215342Y0477750D03*
X0211342Y0477750D03*
X0219342Y0572750D03*
X0223342Y0572750D03*
X0227342Y0572750D03*
X0261342Y0572750D03*
X0265342Y0572750D03*
X0269342Y0572750D03*
X0413342Y0477750D03*
X0417342Y0477750D03*
X0421342Y0572750D03*
X0425342Y0572750D03*
X0429342Y0572750D03*
X0463342Y0572750D03*
X0467342Y0572750D03*
X0471342Y0572750D03*
X0615342Y0477750D03*
X0619342Y0477750D03*
X0623342Y0572750D03*
X0627342Y0572750D03*
X0631342Y0572750D03*
X0631342Y0370750D03*
X0627342Y0370750D03*
X0623342Y0370750D03*
X0619342Y0275750D03*
X0615342Y0275750D03*
X0623342Y0168750D03*
X0627342Y0168750D03*
X0631342Y0168750D03*
X0619342Y0073750D03*
X0615342Y0073750D03*
X0471342Y0168750D03*
X0467342Y0168750D03*
X0463342Y0168750D03*
X0429342Y0168750D03*
X0425342Y0168750D03*
X0421342Y0168750D03*
X0417342Y0073750D03*
X0413342Y0073750D03*
X0413342Y0275750D03*
X0417342Y0275750D03*
X0421342Y0370750D03*
X0425342Y0370750D03*
X0429342Y0370750D03*
X0463342Y0370750D03*
X0467342Y0370750D03*
X0471342Y0370750D03*
X0067342Y0370750D03*
X0063342Y0370750D03*
X0059342Y0370750D03*
X0059342Y0168750D03*
X0063342Y0168750D03*
X0067342Y0168750D03*
X0067342Y0572750D03*
X0063342Y0572750D03*
X0059342Y0572750D03*
D20*
X0060592Y0572626D02*
X0062092Y0572626D01*
X0062092Y0572250D02*
X0062092Y0573250D01*
X0060592Y0573250D01*
X0060592Y0572250D01*
X0062092Y0572250D01*
X0062092Y0573124D02*
X0060592Y0573124D01*
X0064592Y0573124D02*
X0066092Y0573124D01*
X0066092Y0573250D02*
X0066092Y0572250D01*
X0064592Y0572250D01*
X0064592Y0573250D01*
X0066092Y0573250D01*
X0066092Y0572626D02*
X0064592Y0572626D01*
X0212592Y0478250D02*
X0212592Y0477250D01*
X0214092Y0477250D01*
X0214092Y0478250D01*
X0212592Y0478250D01*
X0212592Y0477909D02*
X0214092Y0477909D01*
X0214092Y0477410D02*
X0212592Y0477410D01*
X0224592Y0572250D02*
X0224592Y0573250D01*
X0226092Y0573250D01*
X0226092Y0572250D01*
X0224592Y0572250D01*
X0224592Y0572626D02*
X0226092Y0572626D01*
X0226092Y0573124D02*
X0224592Y0573124D01*
X0262592Y0573124D02*
X0264092Y0573124D01*
X0264092Y0573250D02*
X0264092Y0572250D01*
X0262592Y0572250D01*
X0262592Y0573250D01*
X0264092Y0573250D01*
X0264092Y0572626D02*
X0262592Y0572626D01*
X0266592Y0572626D02*
X0268092Y0572626D01*
X0268092Y0572250D02*
X0268092Y0573250D01*
X0266592Y0573250D01*
X0266592Y0572250D01*
X0268092Y0572250D01*
X0268092Y0573124D02*
X0266592Y0573124D01*
X0414592Y0478250D02*
X0414592Y0477250D01*
X0416092Y0477250D01*
X0416092Y0478250D01*
X0414592Y0478250D01*
X0414592Y0477909D02*
X0416092Y0477909D01*
X0416092Y0477410D02*
X0414592Y0477410D01*
X0426592Y0572250D02*
X0426592Y0573250D01*
X0428092Y0573250D01*
X0428092Y0572250D01*
X0426592Y0572250D01*
X0426592Y0572626D02*
X0428092Y0572626D01*
X0428092Y0573124D02*
X0426592Y0573124D01*
X0464592Y0573124D02*
X0466092Y0573124D01*
X0466092Y0573250D02*
X0466092Y0572250D01*
X0464592Y0572250D01*
X0464592Y0573250D01*
X0466092Y0573250D01*
X0466092Y0572626D02*
X0464592Y0572626D01*
X0468592Y0572626D02*
X0470092Y0572626D01*
X0470092Y0572250D02*
X0470092Y0573250D01*
X0468592Y0573250D01*
X0468592Y0572250D01*
X0470092Y0572250D01*
X0470092Y0573124D02*
X0468592Y0573124D01*
X0616592Y0478250D02*
X0616592Y0477250D01*
X0618092Y0477250D01*
X0618092Y0478250D01*
X0616592Y0478250D01*
X0616592Y0477909D02*
X0618092Y0477909D01*
X0618092Y0477410D02*
X0616592Y0477410D01*
X0628592Y0572250D02*
X0628592Y0573250D01*
X0630092Y0573250D01*
X0630092Y0572250D01*
X0628592Y0572250D01*
X0628592Y0572626D02*
X0630092Y0572626D01*
X0630092Y0573124D02*
X0628592Y0573124D01*
X0628592Y0371250D02*
X0628592Y0370250D01*
X0630092Y0370250D01*
X0630092Y0371250D01*
X0628592Y0371250D01*
X0628592Y0371227D02*
X0630092Y0371227D01*
X0630092Y0370729D02*
X0628592Y0370729D01*
X0618092Y0276250D02*
X0618092Y0275250D01*
X0616592Y0275250D01*
X0616592Y0276250D01*
X0618092Y0276250D01*
X0618092Y0276012D02*
X0616592Y0276012D01*
X0616592Y0275513D02*
X0618092Y0275513D01*
X0628592Y0169250D02*
X0628592Y0168250D01*
X0630092Y0168250D01*
X0630092Y0169250D01*
X0628592Y0169250D01*
X0628592Y0168832D02*
X0630092Y0168832D01*
X0630092Y0168333D02*
X0628592Y0168333D01*
X0618092Y0074250D02*
X0618092Y0073250D01*
X0616592Y0073250D01*
X0616592Y0074250D01*
X0618092Y0074250D01*
X0618092Y0074115D02*
X0616592Y0074115D01*
X0616592Y0073616D02*
X0618092Y0073616D01*
X0470092Y0168250D02*
X0470092Y0169250D01*
X0468592Y0169250D01*
X0468592Y0168250D01*
X0470092Y0168250D01*
X0470092Y0168333D02*
X0468592Y0168333D01*
X0468592Y0168832D02*
X0470092Y0168832D01*
X0466092Y0168832D02*
X0464592Y0168832D01*
X0464592Y0169250D02*
X0466092Y0169250D01*
X0466092Y0168250D01*
X0464592Y0168250D01*
X0464592Y0169250D01*
X0464592Y0168333D02*
X0466092Y0168333D01*
X0428092Y0168333D02*
X0426592Y0168333D01*
X0426592Y0168250D02*
X0426592Y0169250D01*
X0428092Y0169250D01*
X0428092Y0168250D01*
X0426592Y0168250D01*
X0426592Y0168832D02*
X0428092Y0168832D01*
X0416092Y0074250D02*
X0416092Y0073250D01*
X0414592Y0073250D01*
X0414592Y0074250D01*
X0416092Y0074250D01*
X0416092Y0074115D02*
X0414592Y0074115D01*
X0414592Y0073616D02*
X0416092Y0073616D01*
X0268092Y0168250D02*
X0268092Y0169250D01*
X0266592Y0169250D01*
X0266592Y0168250D01*
X0268092Y0168250D01*
X0268092Y0168333D02*
X0266592Y0168333D01*
X0266592Y0168832D02*
X0268092Y0168832D01*
X0264092Y0168832D02*
X0262592Y0168832D01*
X0262592Y0169250D02*
X0264092Y0169250D01*
X0264092Y0168250D01*
X0262592Y0168250D01*
X0262592Y0169250D01*
X0262592Y0168333D02*
X0264092Y0168333D01*
X0226092Y0168333D02*
X0224592Y0168333D01*
X0224592Y0168250D02*
X0224592Y0169250D01*
X0226092Y0169250D01*
X0226092Y0168250D01*
X0224592Y0168250D01*
X0224592Y0168832D02*
X0226092Y0168832D01*
X0214092Y0074250D02*
X0214092Y0073250D01*
X0212592Y0073250D01*
X0212592Y0074250D01*
X0214092Y0074250D01*
X0214092Y0074115D02*
X0212592Y0074115D01*
X0212592Y0073616D02*
X0214092Y0073616D01*
X0066092Y0168250D02*
X0066092Y0169250D01*
X0064592Y0169250D01*
X0064592Y0168250D01*
X0066092Y0168250D01*
X0066092Y0168333D02*
X0064592Y0168333D01*
X0064592Y0168832D02*
X0066092Y0168832D01*
X0062092Y0168832D02*
X0060592Y0168832D01*
X0060592Y0169250D02*
X0062092Y0169250D01*
X0062092Y0168250D01*
X0060592Y0168250D01*
X0060592Y0169250D01*
X0060592Y0168333D02*
X0062092Y0168333D01*
X0212592Y0275250D02*
X0212592Y0276250D01*
X0214092Y0276250D01*
X0214092Y0275250D01*
X0212592Y0275250D01*
X0212592Y0275513D02*
X0214092Y0275513D01*
X0214092Y0276012D02*
X0212592Y0276012D01*
X0224592Y0370250D02*
X0224592Y0371250D01*
X0226092Y0371250D01*
X0226092Y0370250D01*
X0224592Y0370250D01*
X0224592Y0370729D02*
X0226092Y0370729D01*
X0226092Y0371227D02*
X0224592Y0371227D01*
X0262592Y0371227D02*
X0264092Y0371227D01*
X0264092Y0371250D02*
X0264092Y0370250D01*
X0262592Y0370250D01*
X0262592Y0371250D01*
X0264092Y0371250D01*
X0264092Y0370729D02*
X0262592Y0370729D01*
X0266592Y0370729D02*
X0268092Y0370729D01*
X0268092Y0370250D02*
X0268092Y0371250D01*
X0266592Y0371250D01*
X0266592Y0370250D01*
X0268092Y0370250D01*
X0268092Y0371227D02*
X0266592Y0371227D01*
X0414592Y0276250D02*
X0414592Y0275250D01*
X0416092Y0275250D01*
X0416092Y0276250D01*
X0414592Y0276250D01*
X0414592Y0276012D02*
X0416092Y0276012D01*
X0416092Y0275513D02*
X0414592Y0275513D01*
X0426592Y0370250D02*
X0426592Y0371250D01*
X0428092Y0371250D01*
X0428092Y0370250D01*
X0426592Y0370250D01*
X0426592Y0370729D02*
X0428092Y0370729D01*
X0428092Y0371227D02*
X0426592Y0371227D01*
X0464592Y0371227D02*
X0466092Y0371227D01*
X0466092Y0371250D02*
X0466092Y0370250D01*
X0464592Y0370250D01*
X0464592Y0371250D01*
X0466092Y0371250D01*
X0466092Y0370729D02*
X0464592Y0370729D01*
X0468592Y0370729D02*
X0470092Y0370729D01*
X0470092Y0370250D02*
X0470092Y0371250D01*
X0468592Y0371250D01*
X0468592Y0370250D01*
X0470092Y0370250D01*
X0470092Y0371227D02*
X0468592Y0371227D01*
X0066092Y0371227D02*
X0064592Y0371227D01*
X0064592Y0371250D02*
X0066092Y0371250D01*
X0066092Y0370250D01*
X0064592Y0370250D01*
X0064592Y0371250D01*
X0064592Y0370729D02*
X0066092Y0370729D01*
X0062092Y0370729D02*
X0060592Y0370729D01*
X0060592Y0370250D02*
X0060592Y0371250D01*
X0062092Y0371250D01*
X0062092Y0370250D01*
X0060592Y0370250D01*
X0060592Y0371227D02*
X0062092Y0371227D01*
D21*
X0116452Y0410750D03*
X0156452Y0410750D03*
X0318452Y0410750D03*
X0358452Y0410750D03*
X0520452Y0410750D03*
X0560452Y0410750D03*
X0560452Y0208750D03*
X0520452Y0208750D03*
X0358452Y0208750D03*
X0318452Y0208750D03*
X0156452Y0208750D03*
X0116452Y0208750D03*
X0116452Y0612750D03*
X0156452Y0612750D03*
X0318452Y0612750D03*
X0358452Y0612750D03*
X0520452Y0612750D03*
X0560452Y0612750D03*
D22*
X0574232Y0612750D03*
X0534232Y0612750D03*
X0372232Y0612750D03*
X0332232Y0612750D03*
X0170232Y0612750D03*
X0130232Y0612750D03*
X0130232Y0410750D03*
X0170232Y0410750D03*
X0332232Y0410750D03*
X0372232Y0410750D03*
X0534232Y0410750D03*
X0574232Y0410750D03*
X0574232Y0208750D03*
X0534232Y0208750D03*
X0372232Y0208750D03*
X0332232Y0208750D03*
X0170232Y0208750D03*
X0130232Y0208750D03*
D23*
X0160142Y0149650D03*
X0160142Y0147750D03*
X0160142Y0145750D03*
X0160142Y0143750D03*
X0160142Y0141850D03*
X0167542Y0141850D03*
X0167542Y0143750D03*
X0167542Y0145750D03*
X0167542Y0147750D03*
X0167542Y0149650D03*
X0362142Y0149650D03*
X0362142Y0147750D03*
X0362142Y0145750D03*
X0362142Y0143750D03*
X0362142Y0141850D03*
X0369542Y0141850D03*
X0369542Y0143750D03*
X0369542Y0145750D03*
X0369542Y0147750D03*
X0369542Y0149650D03*
X0564142Y0149650D03*
X0564142Y0147750D03*
X0564142Y0145750D03*
X0564142Y0143750D03*
X0564142Y0141850D03*
X0571542Y0141850D03*
X0571542Y0143750D03*
X0571542Y0145750D03*
X0571542Y0147750D03*
X0571542Y0149650D03*
X0571542Y0343850D03*
X0571542Y0345750D03*
X0571542Y0347750D03*
X0571542Y0349750D03*
X0571542Y0351650D03*
X0564142Y0351650D03*
X0564142Y0349750D03*
X0564142Y0347750D03*
X0564142Y0345750D03*
X0564142Y0343850D03*
X0369542Y0343850D03*
X0369542Y0345750D03*
X0369542Y0347750D03*
X0369542Y0349750D03*
X0369542Y0351650D03*
X0362142Y0351650D03*
X0362142Y0349750D03*
X0362142Y0347750D03*
X0362142Y0345750D03*
X0362142Y0343850D03*
X0167542Y0343850D03*
X0167542Y0345750D03*
X0167542Y0347750D03*
X0167542Y0349750D03*
X0167542Y0351650D03*
X0160142Y0351650D03*
X0160142Y0349750D03*
X0160142Y0347750D03*
X0160142Y0345750D03*
X0160142Y0343850D03*
X0160142Y0545850D03*
X0160142Y0547750D03*
X0160142Y0549750D03*
X0160142Y0551750D03*
X0160142Y0553650D03*
X0167542Y0553650D03*
X0167542Y0551750D03*
X0167542Y0549750D03*
X0167542Y0547750D03*
X0167542Y0545850D03*
X0362142Y0545850D03*
X0362142Y0547750D03*
X0362142Y0549750D03*
X0362142Y0551750D03*
X0362142Y0553650D03*
X0369542Y0553650D03*
X0369542Y0551750D03*
X0369542Y0549750D03*
X0369542Y0547750D03*
X0369542Y0545850D03*
X0564142Y0545850D03*
X0564142Y0547750D03*
X0564142Y0549750D03*
X0564142Y0551750D03*
X0564142Y0553650D03*
X0571542Y0553650D03*
X0571542Y0551750D03*
X0571542Y0549750D03*
X0571542Y0547750D03*
X0571542Y0545850D03*
D24*
X0567842Y0549750D03*
X0365842Y0549750D03*
X0163842Y0549750D03*
X0163842Y0347750D03*
X0365842Y0347750D03*
X0567842Y0347750D03*
X0567842Y0145750D03*
X0365842Y0145750D03*
X0163842Y0145750D03*
D25*
X0190428Y0190010D03*
X0201255Y0190010D03*
X0392428Y0190010D03*
X0403255Y0190010D03*
X0594428Y0190010D03*
X0605255Y0190010D03*
X0605255Y0392010D03*
X0594428Y0392010D03*
X0403255Y0392010D03*
X0392428Y0392010D03*
X0201255Y0392010D03*
X0190428Y0392010D03*
X0190428Y0594010D03*
X0201255Y0594010D03*
X0392428Y0594010D03*
X0403255Y0594010D03*
X0594428Y0594010D03*
X0605255Y0594010D03*
D26*
X0599842Y0588006D03*
X0599842Y0600014D03*
X0397842Y0600014D03*
X0397842Y0588006D03*
X0397842Y0398014D03*
X0397842Y0386006D03*
X0599842Y0386006D03*
X0599842Y0398014D03*
X0599842Y0196014D03*
X0599842Y0184006D03*
X0397842Y0184006D03*
X0397842Y0196014D03*
X0195842Y0196014D03*
X0195842Y0184006D03*
X0195842Y0386006D03*
X0195842Y0398014D03*
X0195842Y0588006D03*
X0195842Y0600014D03*
D27*
X0255342Y0467750D03*
X0265342Y0467750D03*
X0457342Y0467750D03*
X0467342Y0467750D03*
X0467342Y0265750D03*
X0457342Y0265750D03*
X0265342Y0265750D03*
X0255342Y0265750D03*
X0063342Y0265750D03*
X0053342Y0265750D03*
X0053342Y0063750D03*
X0063342Y0063750D03*
X0255342Y0063750D03*
X0265342Y0063750D03*
X0457342Y0063750D03*
X0467342Y0063750D03*
X0063342Y0467750D03*
X0053342Y0467750D03*
D28*
X0125625Y0559344D03*
X0127200Y0559344D03*
X0128775Y0559344D03*
X0130350Y0559344D03*
X0131924Y0559344D03*
X0133499Y0559344D03*
X0135074Y0559344D03*
X0136649Y0559344D03*
X0138224Y0559344D03*
X0139798Y0559344D03*
X0139798Y0577730D03*
X0138224Y0577730D03*
X0136649Y0577730D03*
X0135074Y0577730D03*
X0133499Y0577730D03*
X0131924Y0577730D03*
X0130350Y0577730D03*
X0128775Y0577730D03*
X0127200Y0577730D03*
X0125625Y0577730D03*
X0327625Y0577730D03*
X0329200Y0577730D03*
X0330775Y0577730D03*
X0332350Y0577730D03*
X0333924Y0577730D03*
X0335499Y0577730D03*
X0337074Y0577730D03*
X0338649Y0577730D03*
X0340224Y0577730D03*
X0341798Y0577730D03*
X0341798Y0559344D03*
X0340224Y0559344D03*
X0338649Y0559344D03*
X0337074Y0559344D03*
X0335499Y0559344D03*
X0333924Y0559344D03*
X0332350Y0559344D03*
X0330775Y0559344D03*
X0329200Y0559344D03*
X0327625Y0559344D03*
X0327625Y0375730D03*
X0329200Y0375730D03*
X0330775Y0375730D03*
X0332350Y0375730D03*
X0333924Y0375730D03*
X0335499Y0375730D03*
X0337074Y0375730D03*
X0338649Y0375730D03*
X0340224Y0375730D03*
X0341798Y0375730D03*
X0341798Y0357344D03*
X0340224Y0357344D03*
X0338649Y0357344D03*
X0337074Y0357344D03*
X0335499Y0357344D03*
X0333924Y0357344D03*
X0332350Y0357344D03*
X0330775Y0357344D03*
X0329200Y0357344D03*
X0327625Y0357344D03*
X0139798Y0357344D03*
X0138224Y0357344D03*
X0136649Y0357344D03*
X0135074Y0357344D03*
X0133499Y0357344D03*
X0131924Y0357344D03*
X0130350Y0357344D03*
X0128775Y0357344D03*
X0127200Y0357344D03*
X0125625Y0357344D03*
X0125625Y0375730D03*
X0127200Y0375730D03*
X0128775Y0375730D03*
X0130350Y0375730D03*
X0131924Y0375730D03*
X0133499Y0375730D03*
X0135074Y0375730D03*
X0136649Y0375730D03*
X0138224Y0375730D03*
X0139798Y0375730D03*
X0139798Y0173730D03*
X0138224Y0173730D03*
X0136649Y0173730D03*
X0135074Y0173730D03*
X0133499Y0173730D03*
X0131924Y0173730D03*
X0130350Y0173730D03*
X0128775Y0173730D03*
X0127200Y0173730D03*
X0125625Y0173730D03*
X0125625Y0155344D03*
X0127200Y0155344D03*
X0128775Y0155344D03*
X0130350Y0155344D03*
X0131924Y0155344D03*
X0133499Y0155344D03*
X0135074Y0155344D03*
X0136649Y0155344D03*
X0138224Y0155344D03*
X0139798Y0155344D03*
X0327625Y0155344D03*
X0329200Y0155344D03*
X0330775Y0155344D03*
X0332350Y0155344D03*
X0333924Y0155344D03*
X0335499Y0155344D03*
X0337074Y0155344D03*
X0338649Y0155344D03*
X0340224Y0155344D03*
X0341798Y0155344D03*
X0341798Y0173730D03*
X0340224Y0173730D03*
X0338649Y0173730D03*
X0337074Y0173730D03*
X0335499Y0173730D03*
X0333924Y0173730D03*
X0332350Y0173730D03*
X0330775Y0173730D03*
X0329200Y0173730D03*
X0327625Y0173730D03*
X0529625Y0173730D03*
X0531200Y0173730D03*
X0532775Y0173730D03*
X0534350Y0173730D03*
X0535924Y0173730D03*
X0537499Y0173730D03*
X0539074Y0173730D03*
X0540649Y0173730D03*
X0542224Y0173730D03*
X0543798Y0173730D03*
X0543798Y0155344D03*
X0542224Y0155344D03*
X0540649Y0155344D03*
X0539074Y0155344D03*
X0537499Y0155344D03*
X0535924Y0155344D03*
X0534350Y0155344D03*
X0532775Y0155344D03*
X0531200Y0155344D03*
X0529625Y0155344D03*
X0529625Y0357344D03*
X0531200Y0357344D03*
X0532775Y0357344D03*
X0534350Y0357344D03*
X0535924Y0357344D03*
X0537499Y0357344D03*
X0539074Y0357344D03*
X0540649Y0357344D03*
X0542224Y0357344D03*
X0543798Y0357344D03*
X0543798Y0375730D03*
X0542224Y0375730D03*
X0540649Y0375730D03*
X0539074Y0375730D03*
X0537499Y0375730D03*
X0535924Y0375730D03*
X0534350Y0375730D03*
X0532775Y0375730D03*
X0531200Y0375730D03*
X0529625Y0375730D03*
X0529625Y0559344D03*
X0531200Y0559344D03*
X0532775Y0559344D03*
X0534350Y0559344D03*
X0535924Y0559344D03*
X0537499Y0559344D03*
X0539074Y0559344D03*
X0540649Y0559344D03*
X0542224Y0559344D03*
X0543798Y0559344D03*
X0543798Y0577730D03*
X0542224Y0577730D03*
X0540649Y0577730D03*
X0539074Y0577730D03*
X0537499Y0577730D03*
X0535924Y0577730D03*
X0534350Y0577730D03*
X0532775Y0577730D03*
X0531200Y0577730D03*
X0529625Y0577730D03*
D29*
X0497342Y0467750D03*
X0595767Y0467750D03*
X0393767Y0467750D03*
X0295342Y0467750D03*
X0191767Y0467750D03*
X0093342Y0467750D03*
X0093342Y0265750D03*
X0191767Y0265750D03*
X0295342Y0265750D03*
X0393767Y0265750D03*
X0497342Y0265750D03*
X0595767Y0265750D03*
X0595767Y0063750D03*
X0497342Y0063750D03*
X0393767Y0063750D03*
X0295342Y0063750D03*
X0191767Y0063750D03*
X0093342Y0063750D03*
D30*
X0174424Y0167424D02*
X0174424Y0170840D01*
X0174424Y0167424D02*
X0172780Y0167424D01*
X0172780Y0170840D01*
X0174424Y0170840D01*
X0174424Y0168866D02*
X0172780Y0168866D01*
X0172780Y0170308D02*
X0174424Y0170308D01*
X0178164Y0170840D02*
X0178164Y0167424D01*
X0176520Y0167424D01*
X0176520Y0170840D01*
X0178164Y0170840D01*
X0178164Y0168866D02*
X0176520Y0168866D01*
X0176520Y0170308D02*
X0178164Y0170308D01*
X0181904Y0170840D02*
X0181904Y0167424D01*
X0180260Y0167424D01*
X0180260Y0170840D01*
X0181904Y0170840D01*
X0181904Y0168866D02*
X0180260Y0168866D01*
X0180260Y0170308D02*
X0181904Y0170308D01*
X0181904Y0177660D02*
X0181904Y0181076D01*
X0181904Y0177660D02*
X0180260Y0177660D01*
X0180260Y0181076D01*
X0181904Y0181076D01*
X0181904Y0179102D02*
X0180260Y0179102D01*
X0180260Y0180544D02*
X0181904Y0180544D01*
X0178164Y0181076D02*
X0178164Y0177660D01*
X0176520Y0177660D01*
X0176520Y0181076D01*
X0178164Y0181076D01*
X0178164Y0179102D02*
X0176520Y0179102D01*
X0176520Y0180544D02*
X0178164Y0180544D01*
X0174424Y0181076D02*
X0174424Y0177660D01*
X0172780Y0177660D01*
X0172780Y0181076D01*
X0174424Y0181076D01*
X0174424Y0179102D02*
X0172780Y0179102D01*
X0172780Y0180544D02*
X0174424Y0180544D01*
X0174424Y0369424D02*
X0174424Y0372840D01*
X0174424Y0369424D02*
X0172780Y0369424D01*
X0172780Y0372840D01*
X0174424Y0372840D01*
X0174424Y0370866D02*
X0172780Y0370866D01*
X0172780Y0372308D02*
X0174424Y0372308D01*
X0178164Y0372840D02*
X0178164Y0369424D01*
X0176520Y0369424D01*
X0176520Y0372840D01*
X0178164Y0372840D01*
X0178164Y0370866D02*
X0176520Y0370866D01*
X0176520Y0372308D02*
X0178164Y0372308D01*
X0181904Y0372840D02*
X0181904Y0369424D01*
X0180260Y0369424D01*
X0180260Y0372840D01*
X0181904Y0372840D01*
X0181904Y0370866D02*
X0180260Y0370866D01*
X0180260Y0372308D02*
X0181904Y0372308D01*
X0181904Y0379660D02*
X0181904Y0383076D01*
X0181904Y0379660D02*
X0180260Y0379660D01*
X0180260Y0383076D01*
X0181904Y0383076D01*
X0181904Y0381102D02*
X0180260Y0381102D01*
X0180260Y0382544D02*
X0181904Y0382544D01*
X0178164Y0383076D02*
X0178164Y0379660D01*
X0176520Y0379660D01*
X0176520Y0383076D01*
X0178164Y0383076D01*
X0178164Y0381102D02*
X0176520Y0381102D01*
X0176520Y0382544D02*
X0178164Y0382544D01*
X0174424Y0383076D02*
X0174424Y0379660D01*
X0172780Y0379660D01*
X0172780Y0383076D01*
X0174424Y0383076D01*
X0174424Y0381102D02*
X0172780Y0381102D01*
X0172780Y0382544D02*
X0174424Y0382544D01*
X0174424Y0571424D02*
X0174424Y0574840D01*
X0174424Y0571424D02*
X0172780Y0571424D01*
X0172780Y0574840D01*
X0174424Y0574840D01*
X0174424Y0572866D02*
X0172780Y0572866D01*
X0172780Y0574308D02*
X0174424Y0574308D01*
X0178164Y0574840D02*
X0178164Y0571424D01*
X0176520Y0571424D01*
X0176520Y0574840D01*
X0178164Y0574840D01*
X0178164Y0572866D02*
X0176520Y0572866D01*
X0176520Y0574308D02*
X0178164Y0574308D01*
X0181904Y0574840D02*
X0181904Y0571424D01*
X0180260Y0571424D01*
X0180260Y0574840D01*
X0181904Y0574840D01*
X0181904Y0572866D02*
X0180260Y0572866D01*
X0180260Y0574308D02*
X0181904Y0574308D01*
X0181904Y0581660D02*
X0181904Y0585076D01*
X0181904Y0581660D02*
X0180260Y0581660D01*
X0180260Y0585076D01*
X0181904Y0585076D01*
X0181904Y0583102D02*
X0180260Y0583102D01*
X0180260Y0584544D02*
X0181904Y0584544D01*
X0178164Y0585076D02*
X0178164Y0581660D01*
X0176520Y0581660D01*
X0176520Y0585076D01*
X0178164Y0585076D01*
X0178164Y0583102D02*
X0176520Y0583102D01*
X0176520Y0584544D02*
X0178164Y0584544D01*
X0174424Y0585076D02*
X0174424Y0581660D01*
X0172780Y0581660D01*
X0172780Y0585076D01*
X0174424Y0585076D01*
X0174424Y0583102D02*
X0172780Y0583102D01*
X0172780Y0584544D02*
X0174424Y0584544D01*
X0376424Y0585076D02*
X0376424Y0581660D01*
X0374780Y0581660D01*
X0374780Y0585076D01*
X0376424Y0585076D01*
X0376424Y0583102D02*
X0374780Y0583102D01*
X0374780Y0584544D02*
X0376424Y0584544D01*
X0380164Y0585076D02*
X0380164Y0581660D01*
X0378520Y0581660D01*
X0378520Y0585076D01*
X0380164Y0585076D01*
X0380164Y0583102D02*
X0378520Y0583102D01*
X0378520Y0584544D02*
X0380164Y0584544D01*
X0383904Y0585076D02*
X0383904Y0581660D01*
X0382260Y0581660D01*
X0382260Y0585076D01*
X0383904Y0585076D01*
X0383904Y0583102D02*
X0382260Y0583102D01*
X0382260Y0584544D02*
X0383904Y0584544D01*
X0383904Y0574840D02*
X0383904Y0571424D01*
X0382260Y0571424D01*
X0382260Y0574840D01*
X0383904Y0574840D01*
X0383904Y0572866D02*
X0382260Y0572866D01*
X0382260Y0574308D02*
X0383904Y0574308D01*
X0380164Y0574840D02*
X0380164Y0571424D01*
X0378520Y0571424D01*
X0378520Y0574840D01*
X0380164Y0574840D01*
X0380164Y0572866D02*
X0378520Y0572866D01*
X0378520Y0574308D02*
X0380164Y0574308D01*
X0376424Y0574840D02*
X0376424Y0571424D01*
X0374780Y0571424D01*
X0374780Y0574840D01*
X0376424Y0574840D01*
X0376424Y0572866D02*
X0374780Y0572866D01*
X0374780Y0574308D02*
X0376424Y0574308D01*
X0578424Y0574840D02*
X0578424Y0571424D01*
X0576780Y0571424D01*
X0576780Y0574840D01*
X0578424Y0574840D01*
X0578424Y0572866D02*
X0576780Y0572866D01*
X0576780Y0574308D02*
X0578424Y0574308D01*
X0582164Y0574840D02*
X0582164Y0571424D01*
X0580520Y0571424D01*
X0580520Y0574840D01*
X0582164Y0574840D01*
X0582164Y0572866D02*
X0580520Y0572866D01*
X0580520Y0574308D02*
X0582164Y0574308D01*
X0585904Y0574840D02*
X0585904Y0571424D01*
X0584260Y0571424D01*
X0584260Y0574840D01*
X0585904Y0574840D01*
X0585904Y0572866D02*
X0584260Y0572866D01*
X0584260Y0574308D02*
X0585904Y0574308D01*
X0585904Y0581660D02*
X0585904Y0585076D01*
X0585904Y0581660D02*
X0584260Y0581660D01*
X0584260Y0585076D01*
X0585904Y0585076D01*
X0585904Y0583102D02*
X0584260Y0583102D01*
X0584260Y0584544D02*
X0585904Y0584544D01*
X0582164Y0585076D02*
X0582164Y0581660D01*
X0580520Y0581660D01*
X0580520Y0585076D01*
X0582164Y0585076D01*
X0582164Y0583102D02*
X0580520Y0583102D01*
X0580520Y0584544D02*
X0582164Y0584544D01*
X0578424Y0585076D02*
X0578424Y0581660D01*
X0576780Y0581660D01*
X0576780Y0585076D01*
X0578424Y0585076D01*
X0578424Y0583102D02*
X0576780Y0583102D01*
X0576780Y0584544D02*
X0578424Y0584544D01*
X0578424Y0383076D02*
X0578424Y0379660D01*
X0576780Y0379660D01*
X0576780Y0383076D01*
X0578424Y0383076D01*
X0578424Y0381102D02*
X0576780Y0381102D01*
X0576780Y0382544D02*
X0578424Y0382544D01*
X0582164Y0383076D02*
X0582164Y0379660D01*
X0580520Y0379660D01*
X0580520Y0383076D01*
X0582164Y0383076D01*
X0582164Y0381102D02*
X0580520Y0381102D01*
X0580520Y0382544D02*
X0582164Y0382544D01*
X0585904Y0383076D02*
X0585904Y0379660D01*
X0584260Y0379660D01*
X0584260Y0383076D01*
X0585904Y0383076D01*
X0585904Y0381102D02*
X0584260Y0381102D01*
X0584260Y0382544D02*
X0585904Y0382544D01*
X0585904Y0372840D02*
X0585904Y0369424D01*
X0584260Y0369424D01*
X0584260Y0372840D01*
X0585904Y0372840D01*
X0585904Y0370866D02*
X0584260Y0370866D01*
X0584260Y0372308D02*
X0585904Y0372308D01*
X0582164Y0372840D02*
X0582164Y0369424D01*
X0580520Y0369424D01*
X0580520Y0372840D01*
X0582164Y0372840D01*
X0582164Y0370866D02*
X0580520Y0370866D01*
X0580520Y0372308D02*
X0582164Y0372308D01*
X0578424Y0372840D02*
X0578424Y0369424D01*
X0576780Y0369424D01*
X0576780Y0372840D01*
X0578424Y0372840D01*
X0578424Y0370866D02*
X0576780Y0370866D01*
X0576780Y0372308D02*
X0578424Y0372308D01*
X0383904Y0372840D02*
X0383904Y0369424D01*
X0382260Y0369424D01*
X0382260Y0372840D01*
X0383904Y0372840D01*
X0383904Y0370866D02*
X0382260Y0370866D01*
X0382260Y0372308D02*
X0383904Y0372308D01*
X0380164Y0372840D02*
X0380164Y0369424D01*
X0378520Y0369424D01*
X0378520Y0372840D01*
X0380164Y0372840D01*
X0380164Y0370866D02*
X0378520Y0370866D01*
X0378520Y0372308D02*
X0380164Y0372308D01*
X0376424Y0372840D02*
X0376424Y0369424D01*
X0374780Y0369424D01*
X0374780Y0372840D01*
X0376424Y0372840D01*
X0376424Y0370866D02*
X0374780Y0370866D01*
X0374780Y0372308D02*
X0376424Y0372308D01*
X0376424Y0379660D02*
X0376424Y0383076D01*
X0376424Y0379660D02*
X0374780Y0379660D01*
X0374780Y0383076D01*
X0376424Y0383076D01*
X0376424Y0381102D02*
X0374780Y0381102D01*
X0374780Y0382544D02*
X0376424Y0382544D01*
X0380164Y0383076D02*
X0380164Y0379660D01*
X0378520Y0379660D01*
X0378520Y0383076D01*
X0380164Y0383076D01*
X0380164Y0381102D02*
X0378520Y0381102D01*
X0378520Y0382544D02*
X0380164Y0382544D01*
X0383904Y0383076D02*
X0383904Y0379660D01*
X0382260Y0379660D01*
X0382260Y0383076D01*
X0383904Y0383076D01*
X0383904Y0381102D02*
X0382260Y0381102D01*
X0382260Y0382544D02*
X0383904Y0382544D01*
X0383904Y0181076D02*
X0383904Y0177660D01*
X0382260Y0177660D01*
X0382260Y0181076D01*
X0383904Y0181076D01*
X0383904Y0179102D02*
X0382260Y0179102D01*
X0382260Y0180544D02*
X0383904Y0180544D01*
X0380164Y0181076D02*
X0380164Y0177660D01*
X0378520Y0177660D01*
X0378520Y0181076D01*
X0380164Y0181076D01*
X0380164Y0179102D02*
X0378520Y0179102D01*
X0378520Y0180544D02*
X0380164Y0180544D01*
X0376424Y0181076D02*
X0376424Y0177660D01*
X0374780Y0177660D01*
X0374780Y0181076D01*
X0376424Y0181076D01*
X0376424Y0179102D02*
X0374780Y0179102D01*
X0374780Y0180544D02*
X0376424Y0180544D01*
X0376424Y0170840D02*
X0376424Y0167424D01*
X0374780Y0167424D01*
X0374780Y0170840D01*
X0376424Y0170840D01*
X0376424Y0168866D02*
X0374780Y0168866D01*
X0374780Y0170308D02*
X0376424Y0170308D01*
X0380164Y0170840D02*
X0380164Y0167424D01*
X0378520Y0167424D01*
X0378520Y0170840D01*
X0380164Y0170840D01*
X0380164Y0168866D02*
X0378520Y0168866D01*
X0378520Y0170308D02*
X0380164Y0170308D01*
X0383904Y0170840D02*
X0383904Y0167424D01*
X0382260Y0167424D01*
X0382260Y0170840D01*
X0383904Y0170840D01*
X0383904Y0168866D02*
X0382260Y0168866D01*
X0382260Y0170308D02*
X0383904Y0170308D01*
X0578424Y0170840D02*
X0578424Y0167424D01*
X0576780Y0167424D01*
X0576780Y0170840D01*
X0578424Y0170840D01*
X0578424Y0168866D02*
X0576780Y0168866D01*
X0576780Y0170308D02*
X0578424Y0170308D01*
X0582164Y0170840D02*
X0582164Y0167424D01*
X0580520Y0167424D01*
X0580520Y0170840D01*
X0582164Y0170840D01*
X0582164Y0168866D02*
X0580520Y0168866D01*
X0580520Y0170308D02*
X0582164Y0170308D01*
X0585904Y0170840D02*
X0585904Y0167424D01*
X0584260Y0167424D01*
X0584260Y0170840D01*
X0585904Y0170840D01*
X0585904Y0168866D02*
X0584260Y0168866D01*
X0584260Y0170308D02*
X0585904Y0170308D01*
X0585904Y0177660D02*
X0585904Y0181076D01*
X0585904Y0177660D02*
X0584260Y0177660D01*
X0584260Y0181076D01*
X0585904Y0181076D01*
X0585904Y0179102D02*
X0584260Y0179102D01*
X0584260Y0180544D02*
X0585904Y0180544D01*
X0582164Y0181076D02*
X0582164Y0177660D01*
X0580520Y0177660D01*
X0580520Y0181076D01*
X0582164Y0181076D01*
X0582164Y0179102D02*
X0580520Y0179102D01*
X0580520Y0180544D02*
X0582164Y0180544D01*
X0578424Y0181076D02*
X0578424Y0177660D01*
X0576780Y0177660D01*
X0576780Y0181076D01*
X0578424Y0181076D01*
X0578424Y0179102D02*
X0576780Y0179102D01*
X0576780Y0180544D02*
X0578424Y0180544D01*
D31*
X0565976Y0168750D03*
X0557708Y0164970D03*
X0557708Y0172530D03*
X0363976Y0168750D03*
X0355708Y0164970D03*
X0355708Y0172530D03*
X0161976Y0168750D03*
X0153708Y0164970D03*
X0153708Y0172530D03*
X0153708Y0366970D03*
X0153708Y0374530D03*
X0161976Y0370750D03*
X0355708Y0366970D03*
X0355708Y0374530D03*
X0363976Y0370750D03*
X0557708Y0366970D03*
X0557708Y0374530D03*
X0565976Y0370750D03*
X0557708Y0568970D03*
X0557708Y0576530D03*
X0565976Y0572750D03*
X0363976Y0572750D03*
X0355708Y0576530D03*
X0355708Y0568970D03*
X0161976Y0572750D03*
X0153708Y0576530D03*
X0153708Y0568970D03*
D32*
X0190842Y0623250D03*
X0200842Y0623250D03*
X0210842Y0623250D03*
X0392842Y0623250D03*
X0402842Y0623250D03*
X0412842Y0623250D03*
X0594842Y0623250D03*
X0604842Y0623250D03*
X0614842Y0623250D03*
X0614842Y0421250D03*
X0604842Y0421250D03*
X0594842Y0421250D03*
X0412842Y0421250D03*
X0402842Y0421250D03*
X0392842Y0421250D03*
X0210842Y0421250D03*
X0200842Y0421250D03*
X0190842Y0421250D03*
X0190842Y0219250D03*
X0200842Y0219250D03*
X0210842Y0219250D03*
X0392842Y0219250D03*
X0402842Y0219250D03*
X0412842Y0219250D03*
X0594842Y0219250D03*
X0604842Y0219250D03*
X0614842Y0219250D03*
D33*
X0620342Y0641000D03*
X0070342Y0641000D03*
D34*
X0066777Y0020500D02*
X0066779Y0020619D01*
X0066785Y0020738D01*
X0066795Y0020857D01*
X0066809Y0020975D01*
X0066827Y0021093D01*
X0066848Y0021210D01*
X0066874Y0021326D01*
X0066904Y0021442D01*
X0066937Y0021556D01*
X0066974Y0021669D01*
X0067015Y0021781D01*
X0067060Y0021892D01*
X0067108Y0022001D01*
X0067160Y0022108D01*
X0067216Y0022213D01*
X0067275Y0022317D01*
X0067337Y0022418D01*
X0067403Y0022518D01*
X0067472Y0022615D01*
X0067544Y0022709D01*
X0067620Y0022802D01*
X0067698Y0022891D01*
X0067779Y0022978D01*
X0067864Y0023063D01*
X0067951Y0023144D01*
X0068040Y0023222D01*
X0068133Y0023298D01*
X0068227Y0023370D01*
X0068324Y0023439D01*
X0068424Y0023505D01*
X0068525Y0023567D01*
X0068629Y0023626D01*
X0068734Y0023682D01*
X0068841Y0023734D01*
X0068950Y0023782D01*
X0069061Y0023827D01*
X0069173Y0023868D01*
X0069286Y0023905D01*
X0069400Y0023938D01*
X0069516Y0023968D01*
X0069632Y0023994D01*
X0069749Y0024015D01*
X0069867Y0024033D01*
X0069985Y0024047D01*
X0070104Y0024057D01*
X0070223Y0024063D01*
X0070342Y0024065D01*
X0070461Y0024063D01*
X0070580Y0024057D01*
X0070699Y0024047D01*
X0070817Y0024033D01*
X0070935Y0024015D01*
X0071052Y0023994D01*
X0071168Y0023968D01*
X0071284Y0023938D01*
X0071398Y0023905D01*
X0071511Y0023868D01*
X0071623Y0023827D01*
X0071734Y0023782D01*
X0071843Y0023734D01*
X0071950Y0023682D01*
X0072055Y0023626D01*
X0072159Y0023567D01*
X0072260Y0023505D01*
X0072360Y0023439D01*
X0072457Y0023370D01*
X0072551Y0023298D01*
X0072644Y0023222D01*
X0072733Y0023144D01*
X0072820Y0023063D01*
X0072905Y0022978D01*
X0072986Y0022891D01*
X0073064Y0022802D01*
X0073140Y0022709D01*
X0073212Y0022615D01*
X0073281Y0022518D01*
X0073347Y0022418D01*
X0073409Y0022317D01*
X0073468Y0022213D01*
X0073524Y0022108D01*
X0073576Y0022001D01*
X0073624Y0021892D01*
X0073669Y0021781D01*
X0073710Y0021669D01*
X0073747Y0021556D01*
X0073780Y0021442D01*
X0073810Y0021326D01*
X0073836Y0021210D01*
X0073857Y0021093D01*
X0073875Y0020975D01*
X0073889Y0020857D01*
X0073899Y0020738D01*
X0073905Y0020619D01*
X0073907Y0020500D01*
X0073905Y0020381D01*
X0073899Y0020262D01*
X0073889Y0020143D01*
X0073875Y0020025D01*
X0073857Y0019907D01*
X0073836Y0019790D01*
X0073810Y0019674D01*
X0073780Y0019558D01*
X0073747Y0019444D01*
X0073710Y0019331D01*
X0073669Y0019219D01*
X0073624Y0019108D01*
X0073576Y0018999D01*
X0073524Y0018892D01*
X0073468Y0018787D01*
X0073409Y0018683D01*
X0073347Y0018582D01*
X0073281Y0018482D01*
X0073212Y0018385D01*
X0073140Y0018291D01*
X0073064Y0018198D01*
X0072986Y0018109D01*
X0072905Y0018022D01*
X0072820Y0017937D01*
X0072733Y0017856D01*
X0072644Y0017778D01*
X0072551Y0017702D01*
X0072457Y0017630D01*
X0072360Y0017561D01*
X0072260Y0017495D01*
X0072159Y0017433D01*
X0072055Y0017374D01*
X0071950Y0017318D01*
X0071843Y0017266D01*
X0071734Y0017218D01*
X0071623Y0017173D01*
X0071511Y0017132D01*
X0071398Y0017095D01*
X0071284Y0017062D01*
X0071168Y0017032D01*
X0071052Y0017006D01*
X0070935Y0016985D01*
X0070817Y0016967D01*
X0070699Y0016953D01*
X0070580Y0016943D01*
X0070461Y0016937D01*
X0070342Y0016935D01*
X0070223Y0016937D01*
X0070104Y0016943D01*
X0069985Y0016953D01*
X0069867Y0016967D01*
X0069749Y0016985D01*
X0069632Y0017006D01*
X0069516Y0017032D01*
X0069400Y0017062D01*
X0069286Y0017095D01*
X0069173Y0017132D01*
X0069061Y0017173D01*
X0068950Y0017218D01*
X0068841Y0017266D01*
X0068734Y0017318D01*
X0068629Y0017374D01*
X0068525Y0017433D01*
X0068424Y0017495D01*
X0068324Y0017561D01*
X0068227Y0017630D01*
X0068133Y0017702D01*
X0068040Y0017778D01*
X0067951Y0017856D01*
X0067864Y0017937D01*
X0067779Y0018022D01*
X0067698Y0018109D01*
X0067620Y0018198D01*
X0067544Y0018291D01*
X0067472Y0018385D01*
X0067403Y0018482D01*
X0067337Y0018582D01*
X0067275Y0018683D01*
X0067216Y0018787D01*
X0067160Y0018892D01*
X0067108Y0018999D01*
X0067060Y0019108D01*
X0067015Y0019219D01*
X0066974Y0019331D01*
X0066937Y0019444D01*
X0066904Y0019558D01*
X0066874Y0019674D01*
X0066848Y0019790D01*
X0066827Y0019907D01*
X0066809Y0020025D01*
X0066795Y0020143D01*
X0066785Y0020262D01*
X0066779Y0020381D01*
X0066777Y0020500D01*
D35*
X0070342Y0020500D03*
M02*
